<svg width="233" height="175" viewBox="0 0 233 175" fill="none" xmlns="http://www.w3.org/2000/svg">
<g clip-path="url(#clip0_3879_32)">
<path d="M114.497 155.997C142.385 155.997 164.993 133.389 164.993 105.501C164.993 77.612 142.385 55.0039 114.497 55.0039C86.6081 55.0039 64 77.612 64 105.501C64 133.389 86.6081 155.997 114.497 155.997Z" fill="#D1D5DB"/>
<path d="M89.9564 147.874C89.947 147.893 89.9343 147.905 89.9248 147.924C90.0007 147.943 90.0734 147.968 90.1492 147.984L89.9564 147.874ZM86.7799 76.7023L86.6787 76.4968C87.5226 76.3704 87.5795 75.7762 88.2212 75.5581C88.9513 75.3178 88.7016 75.5802 89.4191 75.5581C90.0007 75.5328 90.3547 75.9563 91.0185 75.6466C90.8573 75.931 90.5949 76.127 90.3326 76.3198C89.7858 76.7086 89.2263 77.1069 88.5752 77.2586C87.9241 77.4071 87.1591 77.2491 86.7799 76.7023Z" fill="#777777"/>
<path d="M96.8813 121.712C96.8687 122.157 96.6063 122.546 96.3788 122.922C95.3642 124.578 94.7478 126.497 94.6119 128.441C94.476 130.303 94.5582 132.597 92.9367 133.514C92.0106 134.029 90.7083 133.937 90.092 134.807C89.8992 135.069 89.8075 135.401 89.7158 135.711C89.3176 137.161 88.9162 138.612 88.5179 140.063C88 140.017 87.4826 139.964 86.966 139.905C87.5728 140.098 87.9932 140.92 87.6297 141.482C87.0481 141.176 86.2832 141.539 85.9608 142.124C85.6542 142.705 85.6985 143.413 85.8692 144.055C86.397 145.952 88.0185 147.481 89.9276 147.937C89.5957 148.566 88.5811 148.291 87.9616 147.87C83.5397 144.88 80.2019 140.325 78.6784 135.208C78.1411 133.403 77.7965 131.485 76.744 129.933C75.8653 128.621 74.5378 127.66 73.6591 126.348C72.4264 124.465 72.1956 122.021 70.767 120.299C69.9673 119.316 68.7314 118.108 69.4394 117.056C69.7239 116.623 70.3308 116.212 70.0905 115.753C70.0115 115.605 69.8503 115.513 69.7239 115.387C69.2435 114.872 69.5753 114.062 69.8156 113.399C70.2138 112.245 70.2138 111.012 70.0431 109.78C68.842 108.705 67.8938 107.371 67.2996 105.873C66.9456 104.959 66.4746 103.818 65.4948 103.806C65.2419 103.098 64.9796 102.39 64.7267 101.682C64.635 101.935 64.3853 102.093 64.1104 102.127C64.8689 90.5557 69.5343 80.0556 76.7946 71.9197C76.9558 71.8502 77.1138 71.7585 77.275 71.6669C78.9976 70.6617 80.3694 69.1541 82.0351 68.0573C82.3765 67.8297 82.7653 67.6116 83.1888 67.6558C83.5997 67.6906 83.9885 68.111 83.8399 68.4998C83.7831 68.661 83.6471 68.7874 83.5081 68.8885C81.5518 70.5532 79.4193 71.9989 77.1486 73.1999C76.8767 73.3358 76.5891 73.497 76.4658 73.772C76.2351 74.2398 76.6239 74.8213 77.117 74.992C77.6069 75.1627 78.1569 75.0616 78.6594 74.9478C78.2359 75.5515 78.1095 76.3638 78.3275 77.0718C78.7953 77.1161 78.9439 76.4776 79.083 76.0319C79.6519 74.2619 82.4745 73.5412 82.2912 71.6764C83.0561 72.0746 83.8336 71.1833 84.3014 70.4531C84.7692 69.7104 85.8091 68.9802 86.3812 69.6313C86.4128 69.9948 86.4571 70.3615 86.4918 70.7281C87.497 70.4753 88.5147 70.2129 89.5199 69.9601C88.9478 70.3615 88.755 71.218 89.0837 71.8344C89.4156 72.4507 90.2374 72.7605 90.8885 72.5076C90.879 73.045 90.3986 73.4559 89.9624 73.7751C88.8561 74.6096 87.6677 75.4661 86.3781 75.877L86.6752 76.4934C86.6436 76.506 86.6088 76.5187 86.574 76.5187C85.7522 76.5977 84.883 76.0066 84.0043 76.1204C83.467 76.19 82.8064 76.19 82.4966 76.7368C82.4524 76.8063 82.2596 77.764 82.3955 77.685C82.8759 77.41 83.3532 77.135 83.8241 76.8632C83.9695 77.252 84.0043 77.685 83.9253 78.1085C84.5069 78.0517 85.1137 78.1749 85.6289 78.4847C85.0916 79.73 83.7104 80.5645 82.3512 80.4602C82.3386 80.0493 82.3165 79.6384 82.3038 79.2275C81.1849 79.1358 80.2714 80.0967 79.712 81.0576C79.143 82.0279 78.71 83.1373 77.7712 83.7537C77.2023 84.1425 76.5038 84.291 75.8874 84.6103C75.2837 84.9422 74.7243 85.5711 74.8507 86.2444C74.9076 86.5636 75.113 86.8607 75.1035 87.1926C75.0688 87.809 74.3513 88.0966 73.8708 88.4949C73.049 89.1808 72.8436 90.4388 71.9649 91.0425C71.3264 91.4881 70.4793 91.4786 69.7365 91.7062C68.9938 91.9338 68.251 92.6766 68.5512 93.3972C68.1846 93.5237 67.7389 93.2487 67.7042 92.8599C66.3924 95.4423 65.5264 98.2522 65.1724 101.132C65.8235 101.587 66.4841 100.547 66.6105 99.7599C66.7464 98.9729 67.4323 97.9424 68.0708 98.4102C67.9223 99.5418 67.7737 100.661 67.6283 101.792C67.5935 102.01 67.5714 102.238 67.6757 102.431C67.8021 102.671 68.074 102.772 68.2826 102.943C68.8642 103.445 68.7851 104.337 68.8199 105.102C68.8547 106.037 69.1644 106.951 69.6544 107.75C69.607 107.589 69.5753 107.431 69.5406 107.27C70.4319 107.384 71.358 107.096 72.0313 106.502C72.3853 106.183 72.6824 105.772 73.1281 105.61C73.5864 105.44 74.0889 105.563 74.5567 105.69C76.0075 106.088 77.55 106.533 78.5204 107.674C79.0103 108.256 79.32 108.989 79.9048 109.467C81.2291 110.586 83.4701 110.092 84.6807 111.338C85.6511 112.343 85.4709 113.964 85.2086 115.346C84.5448 114.982 83.6566 115.896 84.0454 116.547C84.3994 116.158 84.8103 115.747 85.3255 115.747C85.8502 115.734 86.3085 116.455 85.9197 116.787C86.8332 115.621 89.071 116.101 89.425 117.552C90.7052 117.644 91.9948 117.732 93.2749 117.836C93.0283 119.714 96.9604 119.825 96.8813 121.712ZM89.0963 68.8664C88.6032 69.1098 87.9237 68.8348 87.7404 68.3164C87.5539 67.7981 87.9047 67.1564 88.442 67.0332C88.7802 66.9541 89.2512 66.9921 89.3555 66.6602C89.3871 66.5591 89.3682 66.4484 89.3682 66.3441C89.3555 65.7183 89.915 65.1999 90.5187 65.0419C91.1224 64.887 91.7609 65.0071 92.3741 65.1272C92.5926 65.5834 92.6548 66.0988 92.5511 66.5938C92.1307 66.6128 91.7103 66.6286 91.2899 66.6476C91.3278 67.3461 91.2583 68.2248 90.6103 68.484C90.0288 68.7147 89.2702 68.2848 88.7866 68.6768M95.6423 61.8906C96.7897 61.3406 97.76 60.4745 98.8916 59.893C100.839 58.8942 103.111 58.8057 105.298 58.7361L120.233 58.2715C119.079 58.9036 117.926 59.539 116.769 60.1711C115.827 60.6895 114.756 61.2205 113.722 60.9265C113.7 61.7578 114.455 62.5291 115.29 62.5227C113.245 63.787 110.406 62.4943 108.247 63.5563C107.344 64.002 106.613 64.8427 105.618 65.0008C105.042 65.0924 104.445 64.9376 103.873 65.064C102.915 65.2726 102.312 66.1798 101.604 66.8562C100.788 67.6369 99.5901 68.1711 98.5249 67.7981C97.4598 67.4251 96.9035 65.8416 97.7569 65.1019C98.1773 64.7384 98.7778 64.6784 99.274 64.4224C99.7703 64.1695 100.162 63.4899 99.7892 63.0759C99.628 62.8957 99.3625 62.8262 99.214 62.6334C99.0528 62.4248 99.0686 62.1276 98.9358 61.9001C98.4301 61.0119 97.0236 62.2067 96.0659 61.8495M110.76 66.0913C111.434 65.9364 112.018 65.5381 112.647 65.2473C113.276 64.9565 114.025 64.7859 114.642 65.0924C114.825 65.5508 114.297 65.968 113.833 66.1323C112.937 66.4461 111.978 66.5298 111.042 66.3757M151.462 71.1137C151.27 71.1365 151.077 71.1247 150.89 71.079C150.033 70.8956 149.382 70.235 148.649 69.7546C146.958 68.6357 144.65 68.4903 142.823 69.4038C143.256 68.7748 143.474 67.9972 143.427 67.2323L143.165 67.324C140.171 65.5887 136.663 63.787 133.398 64.9534C132.642 65.2284 131.96 65.6393 131.195 65.9016C130.382 66.1861 129.482 66.303 128.786 66.8056C128.078 67.3082 127.702 68.4176 128.309 69.0213C128.824 69.5365 129.646 69.3974 130.367 69.467C131.075 69.5365 131.887 70.2414 131.498 70.8482C128.369 72.3117 125.23 73.7878 122.101 75.2638C123.539 75.7316 124.491 77.3626 124.181 78.8482C123.128 79.0315 122.114 78.393 121.052 78.3235C119.509 78.2445 118.036 79.6036 118.005 81.1461C117.961 82.6885 119.377 84.114 120.919 84.0919C122.073 84.0793 123.204 83.3839 124.323 83.6778C124.367 82.6253 125.088 81.734 125.828 80.9817C127.266 79.5404 129.32 78.2381 131.242 78.9462C131.871 79.1737 132.409 79.5973 132.933 80.0177C134.087 80.9311 135.241 81.8541 136.397 82.7802C136.764 82.404 137.128 82.0248 137.494 81.6613C138.123 82.325 138.752 82.9856 139.391 83.6589C139.71 83.4408 140.042 83.2353 140.361 83.0172C140.589 83.6115 140.829 84.193 141.06 84.7873C141.151 84.1362 141.23 83.4977 141.309 82.856C142.065 82.8782 142.864 82.9003 143.547 82.5589C144.233 82.227 144.736 81.4052 144.448 80.6972C144.299 80.3211 143.945 80.024 143.876 79.6226C143.727 78.8229 144.868 78.2761 145.611 78.6396C146.341 78.9936 146.708 79.828 147.018 80.5929C147.188 79.8154 147.346 79.0505 147.52 78.2729C148.238 80.1529 149.26 81.902 150.545 83.4503C148.203 83.0046 145.734 83.2606 143.544 84.1614C144.242 85.1444 145.44 85.726 146.642 85.6786C147.179 85.666 147.773 85.5427 148.184 85.8841C148.494 86.1464 148.573 86.57 148.63 86.9587C148.813 88.0555 148.996 89.1397 149.167 90.2238C147.931 89.2092 146.152 89.323 144.54 89.2914C142.928 89.2471 141.044 88.8015 140.45 87.3064C139.811 88.0271 139.527 89.0543 139.71 90.0152C138.041 89.6169 136.122 88.9785 135.642 87.3317C134.34 87.8121 132.718 86.9809 132.364 85.6438C132.238 85.1761 132.203 84.6039 131.792 84.3542C131.542 84.2057 131.22 84.2278 130.923 84.2626C128.445 84.5502 125.976 84.8252 123.511 85.1128C122.164 85.274 120.771 85.4352 119.582 86.0958C118.394 86.747 117.449 88.0271 117.584 89.3767C115.312 90.7264 113.384 92.6797 112.082 94.9776C111.671 95.6856 111.317 96.498 111.478 97.2976C111.592 97.914 112.003 98.4387 112.129 99.0456C112.347 100.085 111.753 101.091 111.503 102.118C110.795 105.042 113.014 107.795 115.072 110.007C116.042 111.034 117.164 112.153 118.58 112.21C119.459 112.245 120.293 111.856 121.115 111.534C123.467 110.608 126.027 110.184 128.549 110.285C127.977 110.731 128.571 111.701 129.282 111.85C129.991 111.998 130.755 111.768 131.441 112.008C133.006 112.567 132.791 114.862 132.083 116.36C132.437 116.291 132.804 116.221 133.167 116.155C132.975 116.654 132.782 117.152 132.586 117.65C134.732 117.922 135.544 120.744 135.045 122.856C134.555 124.97 133.3 126.911 133.265 129.082C133.256 130.271 133.619 131.425 133.986 132.553C134.902 135.42 135.816 138.287 136.732 141.163C139.293 141.47 140.762 138.214 143.139 137.196C144.031 136.807 145.08 136.728 145.779 136.065C146.452 135.426 146.234 133.928 145.368 133.928C146.544 133.802 147.549 132.727 147.583 131.538C147.596 131.207 147.549 130.875 147.593 130.546C147.672 130.078 147.969 129.667 148.254 129.266C150.068 126.661 151.244 123.678 152.419 120.732C152.726 119.941 153.036 119.167 153.342 118.377C154.506 115.441 155.659 112.517 156.822 109.58C157.278 108.427 157.736 107.286 158.191 106.129C157.562 107.169 155.918 107.033 154.98 106.255C154.031 105.481 153.538 104.302 152.796 103.332C152.167 102.497 151.319 101.758 151.022 100.74C150.852 100.158 150.883 99.5292 150.782 98.9223C150.551 97.6074 149.685 96.5138 149.091 95.3253C148.497 94.1369 148.187 92.5976 149.022 91.5545C151.424 95.7457 153.608 100.06 155.583 104.482C155.801 103.796 156.304 103.202 156.942 102.87C157.41 102.617 157.935 102.516 158.428 102.311C159.73 101.739 160.631 100.357 160.631 98.9413C160.618 97.5252 159.718 96.144 158.403 95.5845C157.752 95.3095 157.009 95.221 156.393 94.8417C155.776 94.4782 155.33 93.6438 155.719 93.0369C156.083 92.4648 156.965 92.4775 157.568 92.7967C158.175 93.1286 158.621 93.688 159.19 94.0642C159.601 94.3392 160.081 94.5193 160.527 94.7722C162.938 96.1534 163.533 99.2953 164.038 102.036C164.313 103.509 164.623 104.972 164.99 106.41C165.002 106.1 164.999 105.781 164.999 105.475C164.987 92.193 159.85 80.122 151.462 71.1137ZM156.086 87.7078C155.754 87.6857 155.447 87.4676 155.182 87.2622C154.749 86.9208 154.313 86.5194 154.186 85.982C154.038 85.3436 154.344 84.6103 154.003 84.0413C153.842 83.7663 153.557 83.5957 153.317 83.4029C152.688 82.9003 152.23 82.1796 152.059 81.4052C151.911 80.7193 152.125 79.8059 152.824 79.6921C153.156 79.6352 153.519 79.8185 153.668 80.1251L153.2 80.378C153.987 80.4696 154.354 81.6581 153.75 82.1701C153.671 82.2492 153.567 82.3187 153.567 82.4325C153.567 82.502 153.611 82.5684 153.671 82.6158C154.161 83.1532 154.894 83.346 155.533 83.6873C156.171 84.0192 156.8 84.6356 156.699 85.3436C156.494 85.4226 156.301 85.4921 156.095 85.5711C155.877 85.7892 156.051 86.178 156.279 86.393C156.506 86.6079 156.803 86.826 156.816 87.1452C156.816 87.4897 156.427 87.73 156.086 87.7078ZM156.415 122.849L155.59 123.434C155.877 124.446 155.302 125.631 154.325 126.026C153.81 126.235 153.124 126.326 152.95 126.854C152.805 127.303 153.153 127.758 153.2 128.226C153.276 129.003 152.549 129.585 152.024 130.163C151.5 130.742 151.221 131.829 151.92 132.177C152.081 132.259 152.268 132.275 152.448 132.291C153.206 132.357 154.038 132.379 154.657 131.937C156.434 130.669 154.746 127.23 156.5 125.928C156.75 125.745 157.063 125.612 157.199 125.334C157.613 124.515 156.086 123.703 156.415 122.849Z" fill="#718095" fill-opacity="0.8"/>
</g>
<path d="M169.955 37H57.0455C56.4681 37 56 37.4477 56 38C56 38.5523 56.4681 39 57.0455 39H169.955C170.532 39 171 38.5523 171 38C171 37.4477 170.532 37 169.955 37Z" fill="#3C4148"/>
<path d="M168 40H60C59.4477 40 59 40.4477 59 41C59 41.5523 59.4477 42 60 42H168C168.552 42 169 41.5523 169 41C169 40.4477 168.552 40 168 40Z" fill="#3C4148"/>
<path d="M162.082 43H62.9182C62.4111 43 62 43.4477 62 44C62 44.5523 62.4111 45 62.9182 45H162.082C162.589 45 163 44.5523 163 44C163 43.4477 162.589 43 162.082 43Z" fill="#3C4148"/>
<path d="M154.951 46H72.0494C71.4698 46 71 46.4477 71 47C71 47.5523 71.4698 48 72.0494 48H154.951C155.53 48 156 47.5523 156 47C156 46.4477 155.53 46 154.951 46Z" fill="#3C4148"/>
<path d="M168.737 30H58.5906C56 30 56 30 56 32.5C56 35 56 35 58.5906 35H168.737C171 35 171 35 171 32.5C171 30 171 30 168.737 30Z" fill="#D1D5DB"/>
<defs>
<clipPath id="clip0_3879_32">
<rect width="101" height="101" fill="white" transform="translate(64 55)"/>
</clipPath>
</defs>
</svg>
