<svg width="233" height="175" viewBox="0 0 233 175" fill="none" xmlns="http://www.w3.org/2000/svg">
<path opacity="0.4" d="M226.998 0H6.00197C3.23945 0 1 2.24326 1 5.01047V168.99C1 171.757 3.23945 174 6.00197 174H226.998C229.761 174 232 171.757 232 168.99V5.01047C232 2.24326 229.761 0 226.998 0Z" fill="#D9D9D9" fill-opacity="0.38"/>
<rect x="5" y="40" width="42" height="44" rx="2" fill="#718095" fill-opacity="0.35"/>
<rect x="95" y="40" width="43" height="44" rx="2" fill="#718095" fill-opacity="0.35"/>
<rect x="186" y="40" width="42" height="42" rx="2" fill="#718095" fill-opacity="0.35"/>
<rect x="5" y="86" width="42" height="42" rx="2" fill="#718095" fill-opacity="0.35"/>
<rect x="95" y="86" width="43" height="42" rx="2" fill="#718095" fill-opacity="0.35"/>
<rect x="186" y="86" width="42" height="42" rx="2" fill="#718095" fill-opacity="0.35"/>
<rect x="50" y="63" width="43" height="42" rx="2" fill="#718095" fill-opacity="0.35"/>
<rect x="140" y="63" width="43" height="42" rx="2" fill="#718095" fill-opacity="0.35"/>
</svg>
