<svg width="233" height="175" viewBox="0 0 233 175" fill="none" xmlns="http://www.w3.org/2000/svg">
<g clip-path="url(#clip0_3879_9)">
<path opacity="0.4" d="M227.084 0.90625H5.91602C3.15135 0.90625 0.910156 3.13902 0.910156 5.8933V169.106C0.910156 171.86 3.15135 174.093 5.91602 174.093H227.084C229.849 174.093 232.09 171.86 232.09 169.106V5.8933C232.09 3.13902 229.849 0.90625 227.084 0.90625Z" fill="#D9D9D9" fill-opacity="0.38"/>
<rect x="58" y="24" width="117" height="12" rx="2" fill="#3C4148"/>
<rect x="60" y="26" width="36" height="8" rx="1" fill="white" fill-opacity="0.9"/>
<rect x="98" y="26" width="37" height="8" rx="1" fill="#D1D5DB" fill-opacity="0.13"/>
<rect x="137" y="26" width="36" height="8" rx="1" fill="#D1D5DB" fill-opacity="0.13"/>
<rect x="18" y="40" width="198" height="109" rx="2" fill="#718095" fill-opacity="0.35"/>
<rect x="26" y="47" width="180" height="95" rx="4" fill="white"/>
<rect x="35" y="52" width="162" height="82" rx="4" fill="#718095"/>
</g>
<defs>
<clipPath id="clip0_3879_9">
<rect width="233" height="175" fill="white"/>
</clipPath>
</defs>
</svg>
