<?xml version="1.0" encoding="UTF-8"?>
<!-- Generated by @neplex/vectorizer (Using visioncortex VTracer) -->
<svg version="1.1" xmlns="http://www.w3.org/2000/svg" width="1024" height="1024">
<path d="M0 0 C6.08045831 6.08045831 6.26122373 9.60441745 6.30078125 17.9765625 C6.3091803 19.4613208 6.3091803 19.4613208 6.31774902 20.97607422 C6.32968884 24.19253624 6.3233779 27.40853821 6.3125 30.625 C6.31067719 31.71689636 6.30885437 32.80879272 6.30697632 33.93377686 C6.20731048 69.18561743 4.18822156 106.39004598 -19.6875 134.3125 C-27.38500967 140.89442856 -35.81585888 144 -46 144 C-55.23189661 142.88065919 -62.51495593 140.56031845 -70 135 C-72.95205517 131.20450049 -73.87648685 128.71862198 -74.6875 124 C-73.73028577 118.4307536 -71.36809068 116.4522007 -67 113 C-64.1875 111.6875 -64.1875 111.6875 -61 112 C-58.54167156 113.52028206 -56.08521275 115.04437559 -53.66015625 116.6171875 C-49.36232975 118.85129996 -45.71247703 118.56549724 -41 118 C-31.16220668 112.09732401 -27.72152319 103.40821174 -24.83203125 92.65234375 C-23.35273133 86.46278198 -21.98567021 80.28857596 -21 74 C-22.36125 74.94875 -23.7225 75.8975 -25.125 76.875 C-31.33414707 80.85522248 -35.61188074 82.63690683 -43 82 C-50.87637214 79.78477033 -55.78458988 75.93670644 -60.6875 69.4375 C-69.59426286 52.34614424 -70.78285475 29.6893471 -66.625 11 C-65 6 -65 6 -63 4 C-56.50183322 3.57804112 -53.68897876 3.58661274 -48 7 C-45.45844064 12.07539361 -45.69879946 17.34922215 -45.5625 22.9375 C-44.95910561 39.62771525 -44.95910561 39.62771525 -39 55 C-37.68 55.66 -36.36 56.32 -35 57 C-25.23112584 51.1386755 -22.87158112 39.32902769 -20.09375 28.83203125 C-18.60095041 22.23705591 -17.58114079 15.61261222 -16.67578125 8.9140625 C-16 5 -16 5 -14 1 C-9.03837176 -1.04302339 -5.18849613 -1.37054615 0 0 Z " fill="#FAFBFA" transform="translate(732,510)"/>
<path d="M0 0 C7.17091904 0.57367352 10.97522593 2.79524601 15.8125 8.0625 C19.66629898 13.23760149 19.30938057 17.65769827 19 24 C16 29 16 29 12 32 C7 32 7 32 3.125 28.5 C-0.61508758 24.66414046 -0.61508758 24.66414046 -5 24.5625 C-5.99 24.706875 -6.98 24.85125 -8 25 C-9.85216176 31.3846877 -10.3762448 37.36652803 -10.625 44 C-10.69976563 45.876875 -10.77453125 47.75375 -10.8515625 49.6875 C-10.90054688 51.110625 -10.94953125 52.53375 -11 54 C-8.525 53.505 -8.525 53.505 -6 53 C-0.2929021 52.71932305 4.56404193 53.18801398 10 55 C14 59 14 59 14 63.5 C13 68 13 68 9 72 C3.23818073 74.88090963 -4.87089827 74 -11 74 C-10.34 85.55 -9.68 97.1 -9 109 C-9.99 108.505 -9.99 108.505 -11 108 C-11.01981934 109.16571533 -11.03963867 110.33143066 -11.06005859 111.5324707 C-11.15506477 116.79271611 -11.264844 122.05255099 -11.375 127.3125 C-11.42140625 130.0649707 -11.42140625 130.0649707 -11.46875 132.87304688 C-11.50742187 134.62294922 -11.54609375 136.37285156 -11.5859375 138.17578125 C-11.6173584 139.79395752 -11.6487793 141.41213379 -11.68115234 143.0793457 C-12 147 -12 147 -14 150 C-19.49475781 151.37368945 -24.32835071 151.18101008 -30 151 C-39.40135169 141.59864831 -35.43864175 108.95543884 -35.625 95.625 C-35.66331981 93.3163938 -35.70237875 91.00779975 -35.7421875 88.69921875 C-35.83660407 83.1329258 -35.92116475 77.56653808 -36 72 C-37.8871875 71.814375 -37.8871875 71.814375 -39.8125 71.625 C-44 71 -44 71 -47 69 C-47.4375 64.5625 -47.4375 64.5625 -47 60 C-45.68 59.01 -44.36 58.02 -43 57 C-43.33 56.34 -43.66 55.68 -44 55 C-40.7 55.33 -37.4 55.66 -34 56 C-33.85304688 53.66228516 -33.85304688 53.66228516 -33.703125 51.27734375 C-31.34892331 17.1441503 -31.34892331 17.1441503 -19 6 C-13.77079898 2.86247939 -11.74520121 1.87464264 -5.875 1.4375 C-3.93625 1.293125 -1.9975 1.14875 0 1 C0 0.67 0 0.34 0 0 Z " fill="#FDFDFC" transform="translate(638,471)"/>
<path d="M0 0 C2.24893954 -0.10823773 4.49937575 -0.18569645 6.75 -0.25 C8.00296875 -0.29640625 9.2559375 -0.3428125 10.546875 -0.390625 C14 0 14 0 18 4 C19.03894731 9.19473655 19.39772191 14.1298471 19.71875 19.41796875 C19.81295227 20.93660271 19.81295227 20.93660271 19.90905762 22.48591614 C20.1092694 25.71958839 20.30496386 28.95351178 20.5 32.1875 C20.69555889 35.40359876 20.89214649 38.61962516 21.09094238 41.83552551 C21.27191421 44.76675538 21.44952512 47.69819217 21.62695312 50.62963867 C21.98383771 55.76732867 22.47329158 60.87736701 23 66 C23.19258251 70.04871136 23.13849825 73.93738479 23 78 C20.35082788 80.64917212 18.35574111 80.73523881 14.6875 81.375 C13.55699219 81.58898437 12.42648437 81.80296875 11.26171875 82.0234375 C8 82 8 82 5.1953125 80.3046875 C2.26003238 77.22316566 1.27169828 74.01588932 0 70 C-1.11375 71.2375 -2.2275 72.475 -3.375 73.75 C-9.11718369 79.46180177 -15.00658634 81.85397982 -23.125 82.25 C-24.40375 82.1675 -25.6825 82.085 -27 82 C-26.67 81.34 -26.34 80.68 -26 80 C-27.65 79.67 -29.3 79.34 -31 79 C-31 78.34 -31 77.68 -31 77 C-31.845625 76.814375 -32.69125 76.62875 -33.5625 76.4375 C-41.83390442 72.97854906 -45.66937727 65.95648762 -49 58 C-51.86408554 48.60664014 -52.43624315 39.64575902 -52.3125 29.875 C-52.31572266 28.59496094 -52.31894531 27.31492187 -52.32226562 25.99609375 C-52.27968424 18.43209124 -51.8296987 11.35551117 -50 4 C-46.56965235 1.71310156 -44.56665009 1.50052399 -40.5 1.125 C-38.78296875 0.94324219 -38.78296875 0.94324219 -37.03125 0.7578125 C-36.0309375 0.83773438 -35.030625 0.91765625 -34 1 C-30.70294592 5.3960721 -30.62508312 6.42640562 -30.59375 11.6796875 C-30.57183594 13.00226562 -30.54992187 14.32484375 -30.52734375 15.6875 C-30.51832031 17.069375 -30.50929688 18.45125 -30.5 19.875 C-30.56456572 38.6946937 -30.56456572 38.6946937 -24 56 C-19.35954625 57.09805807 -19.35954625 57.09805807 -16 57 C-6.73920296 42.25132324 -4.30291445 25.65374478 -1.74609375 8.73828125 C-1 5 -1 5 1 2 C0.505 1.01 0.505 1.01 0 0 Z " fill="#FDFDFC" transform="translate(400,510)"/>
<path d="M0 0 C3 2 3 2 4 5 C4.9075 5.45375 5.815 5.9075 6.75 6.375 C10.28424409 8.14212205 12.22252618 10.22252618 15 13 C17.29776901 14.39372874 19.62489134 15.74258953 22 17 C22 17.66 22 18.32 22 19 C24.475 19.99 24.475 19.99 27 21 C29.26779447 22.65671212 31.49492973 24.36994375 33.6875 26.125 C37.42187016 29.61437136 37.42187016 29.61437136 42 31 C43.70884005 32.62339805 45.37446717 34.29319053 47 36 C47.66 36.66 48.32 37.32 49 38 C49.495 40.475 49.495 40.475 50 43 C47.29224482 46.24930621 44.39608759 48.45293431 41 51 C32.01854239 49.20370848 26.09087442 44.61360892 19 39 C17.535625 38.0925 16.07125 37.185 14.5625 36.25 C11 34 11 34 9 31 C7.68 30.67 6.36 30.34 5 30 C5 30.66 5 31.32 5 32 C5.99 32.33 6.98 32.66 8 33 C7.34 33 6.68 33 6 33 C8.85503558 45.81407147 12.31908885 58.40076699 16 71 C17.44558689 76.00811936 18.85427235 81.02318826 20.1875 86.0625 C20.55230469 87.41472656 20.91710937 88.76695312 21.29296875 90.16015625 C21.98632608 93.92573776 22.02834237 96.33823061 21 100 C17.75266838 103.24733162 14.44563985 102.8814496 10 103 C5.54816646 101.02140732 4.89011584 98.74693345 2.9375 94.25 C2.26156683 92.17623704 1.61775558 90.0918309 1 88 C0.68289063 86.93652344 0.36578125 85.87304688 0.0390625 84.77734375 C-2.88880468 74.01450401 -4.56871992 63.04509987 -6.24975586 52.03198242 C-6.44835205 50.76588135 -6.64694824 49.49978027 -6.8515625 48.1953125 C-7.02510254 47.05078613 -7.19864258 45.90625977 -7.37744141 44.72705078 C-7.77526334 41.87007361 -7.77526334 41.87007361 -10 40 C-13.79887968 43.79887968 -15.46105377 46.49603475 -17.75 51.25 C-18.36359375 52.51328125 -18.9771875 53.7765625 -19.609375 55.078125 C-20.06828125 56.04234375 -20.5271875 57.0065625 -21 58 C-21.66 57.34 -22.32 56.68 -23 56 C-24.485 58.475 -24.485 58.475 -26 61 C-29.80241571 59.47903372 -33.36474615 57.85989732 -37 56 C-35.57521889 52.68148468 -34.13606342 49.37061461 -32.6875 46.0625 C-32.28337891 45.11697266 -31.87925781 44.17144531 -31.46289062 43.19726562 C-30.38891016 40.7611636 -29.20141 38.37584535 -28 36 C-26.515 35.505 -26.515 35.505 -25 35 C-24.95875 33.63875 -24.9175 32.2775 -24.875 30.875 C-23.31605443 20.40779402 -19.05563559 10.95635502 -12 3 C-6.9807193 -0.01156842 -5.55250197 -0.51412055 0 0 Z " fill="#FCFCFC" transform="translate(550,385)"/>
<path d="M0 0 C4.80058745 3.46709094 8.32453165 6.91637596 10.625 12.4375 C10.24048704 17.05165558 7.51907107 19.22926421 4.375 22.4375 C0.375 21.4375 0.375 21.4375 -3.25 18.875 C-8.42676912 15.99080006 -11.79030723 16.032313 -17.625 16.4375 C-18.09031015 21.89871596 -18.09031015 21.89871596 -16.1328125 26.84375 C-11.66434647 31.46534104 -6.12569882 34.66952364 -0.7890625 38.20703125 C6.35397881 43.74858393 10.16163098 49.70698886 12.375 58.4375 C13.15916923 65.62571798 11.04318308 72.28648751 7.6875 78.625 C2.09585769 85.42564605 -3.85487742 90.87387386 -12.82421875 91.75 C-22.58614527 92.08770989 -29.79286219 90.38529832 -37.6875 84.3125 C-41.41470368 80.66459852 -41.5439366 80.36972908 -42 75.125 C-41.625 70.4375 -41.625 70.4375 -39.375 67.5 C-36.625 65.4375 -36.625 65.4375 -32.625 63.4375 C-27.66628539 64.42924292 -25.70446066 65.71785956 -21.625 68.4375 C-16.65423527 69.96373481 -16.65423527 69.96373481 -12.625 67.4375 C-11.5291582 64.61492605 -11.5291582 64.61492605 -11.625 61.4375 C-14.5933561 56.49023984 -16.15402267 55.08805269 -20.8125 52.0625 C-36.58262419 41.43786176 -36.58262419 41.43786176 -39.625 32.4375 C-40.63137505 23.66316757 -39.93347398 16.30046501 -35.625 8.4375 C-25.66473355 -1.84933256 -13.64800852 -4.61081369 0 0 Z " fill="#FBFCFB" transform="translate(530.625,505.5625)"/>
<path d="M0 0 C0.99 0 1.98 0 3 0 C6.35874757 3.45753426 7.020256 5.10128002 8 10 C6.71538343 14.30724379 5.53132973 16.53797415 2.125 19.5 C-1 21 -1 21 -6 20 C-6.99 19.34 -7.98 18.68 -9 18 C-10.65 18 -12.3 18 -14 18 C-20.23899395 24.95202183 -20.45145776 34.08370931 -20 43 C-19.01685019 48.57118227 -17.57539145 52.58333997 -14 57 C-9.59253529 59.20373236 -8.5755928 59.30731223 -4 58 C-3.175 57.29875 -2.35 56.5975 -1.5 55.875 C1 54 1 54 4 53.9375 C7.71898914 55.25464199 9.49019026 56.98822832 12 60 C13.44678703 64.34036109 13.54045141 67.43618809 13 72 C7.64896614 77.8204228 2.47551886 81.78336322 -5.55078125 82.171875 C-9.04005618 82.18590224 -12.51340517 82.13056596 -16 82 C-16 81.34 -16 80.68 -16 80 C-17.44375 79.525625 -18.8875 79.05125 -20.375 78.5625 C-28.83479192 75.14258412 -34.42501865 69.69059314 -39 61.875 C-44.42692916 48.64686018 -45.37034005 33.50284933 -40.38671875 19.8984375 C-35.58541531 9.86303708 -29.21569987 3.23970198 -18.9375 -1.375 C-12.2056408 -2.80731047 -6.55638684 -1.77800321 0 0 Z " fill="#FDFDFC" transform="translate(327,513)"/>
<path d="M0 0 C4.48797026 3.13114204 7.12713961 6.13165658 8.8125 11.375 C8.64357434 16.10491854 7.05962709 17.64948713 3.6875 20.875 C2.0375 21.865 0.3875 22.855 -1.3125 23.875 C-4.1875 23.0625 -4.1875 23.0625 -7.3125 21.875 C-11.05860227 21.68452022 -13.75195927 21.68815309 -17.3125 22.875 C-21.51335383 33.84389612 -20.05662211 45.18373048 -18.875 56.5625 C-18.58181861 59.4827915 -18.29135609 62.40335752 -18.00390625 65.32421875 C-17.87185791 66.60643311 -17.73980957 67.88864746 -17.60375977 69.2097168 C-17.50764404 70.41926025 -17.41152832 71.62880371 -17.3125 72.875 C-17.19511475 74.12385986 -17.07772949 75.37271973 -16.95678711 76.65942383 C-17.07417236 77.72056396 -17.19155762 78.7817041 -17.3125 79.875 C-24.24032193 84.03169316 -29.27961093 84.33666029 -37.3125 83.875 C-44.46457964 74.33889382 -43.16670127 59.26829954 -43.9375 47.8125 C-44.0715625 45.96205078 -44.205625 44.11160156 -44.34375 42.20507812 C-46.62481204 9.11804051 -46.62481204 9.11804051 -43.3125 1.875 C-39.38073938 0.02475971 -36.97797064 -0.22826269 -32.6875 0.4375 C-28.96840695 2.02155815 -26.94490539 3.8437453 -24.3125 6.875 C-23.796875 6.111875 -23.28125 5.34875 -22.75 4.5625 C-16.78703186 -2.01205462 -8.21081054 -2.78857717 0 0 Z " fill="#FBFBFA" transform="translate(480.3125,508.125)"/>
<path d="M0 0 C5.05952631 3.41223867 6.05632314 7.68090636 7.421875 13.4765625 C9.20079647 24.31836769 9.15182877 35.10294883 9.125 46.0625 C9.13080078 48.43791992 9.13080078 48.43791992 9.13671875 50.86132812 C9.1225203 67.84977034 9.1225203 67.84977034 8 74 C1.97641857 78.51768607 -3.64577144 78.47142491 -11 78 C-18.33757329 68.21656894 -16.19907788 52.60198938 -16.25 40.8125 C-16.25926514 39.47155273 -16.26853027 38.13060547 -16.27807617 36.74902344 C-16.1887157 8.1887157 -16.1887157 8.1887157 -8 0 C-4.99054157 -1.50472922 -3.20590237 -0.88005163 0 0 Z " fill="#FBFBFA" transform="translate(570,513)"/>
<path d="M0 0 C8.06242075 4.9270349 15.5905242 10.34720499 23.11328125 16.0625 C26.43727133 18.57470155 29.7946413 21.01991647 33.1875 23.4375 C40.57525084 28.90635452 40.57525084 28.90635452 43 32 C43 37.98404045 41.76812781 39.49462979 38 44 C35 46.5 35 46.5 32 48 C20.19206507 45.63841301 9.51540684 36.13655513 0 29 C2.31018454 39.31194104 4.93221668 49.41800478 8.14453125 59.48828125 C9 63 9 63 8 67 C4.36834471 63.36834471 3.81641461 57.74408166 2.5 52.875 C2.19191406 51.75867188 1.88382813 50.64234375 1.56640625 49.4921875 C0.69795421 46.33146934 -0.15359594 43.16668252 -1 40 C-1.4021875 38.51757812 -1.804375 37.03515625 -2.21875 35.5078125 C-3 32 -3 32 -3 27 C-3.33 26.01 -3.66 25.02 -4 24 C-2.02 24 -0.04 24 2 24 C2.33 25.32 2.66 26.64 3 28 C5.38729574 29.49205984 7.78414324 30.9722039 10.23828125 32.3515625 C13 34 13 34 17.6875 37.6875 C21.48562808 40.60490272 24.4582044 42.57512295 29 44 C33.55964073 42.86008982 35.565509 41.12920292 39 38 C39.495 37.01 39.495 37.01 40 36 C37.91170293 30.77925732 37.04186994 29.8643838 32.6875 26.75 C31.09228516 25.59564453 31.09228516 25.59564453 29.46484375 24.41796875 C24.81886451 21.17573521 20.13835819 17.9864426 15.421875 14.84765625 C14.62265625 14.23792969 13.8234375 13.62820313 13 13 C13 12.34 13 11.68 13 11 C11.68 10.67 10.36 10.34 9 10 C4.75 7.0625 4.75 7.0625 1 4 C1 3.34 1 2.68 1 2 C0.34 1.67 -0.32 1.34 -1 1 C-0.67 0.67 -0.34 0.34 0 0 Z " fill="#F5F4F3" transform="translate(559,391)"/>
<path d="M0 0 C1.32 0.33 2.64 0.66 4 1 C2.68 1.99 1.36 2.98 0 4 C-0.8179573 8.60855381 -0.8179573 8.60855381 -1 13 C0.794375 13.309375 2.58875 13.61875 4.4375 13.9375 C10 15 10 15 11 16 C11.13629357 19.41884078 11.20409988 22.84042006 11.24609375 26.26171875 C11.27912148 28.43685163 11.31233116 30.61198175 11.34570312 32.78710938 C11.39245427 36.20236531 11.43667895 39.61761868 11.47680664 43.03295898 C10.86145518 69.00755612 10.86145518 69.00755612 16 94 C19.96 94.33 23.92 94.66 28 95 C27.67 95.66 27.34 96.32 27 97 C21.6875 97.875 21.6875 97.875 16 98 C6.50987169 88.50987169 8.91545362 70.80338517 8.90234375 58.0390625 C8.90527491 53.23432996 8.92058204 48.42970054 8.9375 43.625 C8.94252455 41.13541757 8.94708577 38.64583415 8.95117188 36.15625 C8.96210294 30.10414213 8.9793151 24.05208207 9 18 C7.7625 17.896875 6.525 17.79375 5.25 17.6875 C1 17 1 17 -3 14 C-4.46467047 7.94602871 -4.31755234 6.5292539 -1 1 C-0.67 0.67 -0.34 0.34 0 0 Z " fill="#EEEDEC" transform="translate(592,527)"/>
<path d="M0 0 C3.21356242 4.28474989 3.6371737 6.23985579 4.4296875 11.4140625 C4.78281006 13.62766479 4.78281006 13.62766479 5.14306641 15.88598633 C5.50537354 18.2317981 5.50537354 18.2317981 5.875 20.625 C8.60752384 43.02138619 8.60752384 43.02138619 18 63 C22.55852356 64.58557341 25.60335527 63.77959429 30 62 C31.63366437 56.11098232 30.1067082 51.42519667 28.5625 45.625 C28.08941406 43.82289063 27.61632812 42.02078125 27.12890625 40.1640625 C26.75636719 38.78992188 26.38382813 37.41578125 26 36 C27.485 35.505 27.485 35.505 29 35 C30.0078439 38.56044853 31.00651697 42.123044 32 45.6875 C32.28617188 46.69490234 32.57234375 47.70230469 32.8671875 48.74023438 C34.14209307 53.33900091 35 57.19990267 35 62 C30.70914865 65.51069656 27.0624594 66.77500443 21.5625 67.375 C18 67 18 67 15.3125 65.125 C5.81664246 52.29276008 4.18980436 33.03984178 1.6875 17.5625 C1.51605469 16.50281006 1.34460938 15.44312012 1.16796875 14.35131836 C0.41478458 9.47484316 0 4.95157906 0 0 Z " fill="#F5F4F3" transform="translate(540,423)"/>
<path d="M0 0 C4.29 0 8.58 0 13 0 C13 0.66 13 1.32 13 2 C11.39125 2.144375 9.7825 2.28875 8.125 2.4375 C3.39812442 2.65637062 3.39812442 2.65637062 1 4 C-3.61193302 23.4453488 -4.06251149 48.52790524 5.9375 66.1875 C10.18143836 71.47077021 12.64114153 74.45645661 19 77 C19 77.66 19 78.32 19 79 C22.96 79.33 26.92 79.66 31 80 C31 80.33 31 80.66 31 81 C20.24759002 81.61093239 15.5791193 79.95822177 7.3125 72.8125 C-4.77967546 58.89509051 -5.64119753 40.56881237 -5 23 C-4.34717742 14.75069655 -3.54500138 7.5464824 0 0 Z " fill="#EDEAE9" transform="translate(350,510)"/>
<path d="M0 0 C1 4 1 4 0 8 C-0.74606443 21.6003877 -0.64447456 32.61106319 6.75 44.375 C13.66450512 52.08733264 20.27307198 55.1261349 30 58 C30 58.33 30 58.66 30 59 C22.64171551 60.00340243 17.09483935 56.72831453 11 53 C1.48059458 45.32306014 -2.61154997 34.94067026 -4 23 C-4.38626698 15.17809362 -4.47237909 6.70856863 0 0 Z " fill="#EEEDEC" transform="translate(285,535)"/>
<path d="M0 0 C0.33 0 0.66 0 1 0 C1.06058594 1.43214844 1.12117187 2.86429688 1.18359375 4.33984375 C1.26738281 6.18707031 1.35117187 8.03429687 1.4375 9.9375 C1.51871094 11.78214844 1.59992187 13.62679687 1.68359375 15.52734375 C1.48820767 19.70668978 1.48820767 19.70668978 3 21 C3.28579191 26.70284773 3.2319331 32.41585953 3.25 38.125 C3.270625 39.73117187 3.29125 41.33734375 3.3125 42.9921875 C3.31765625 44.54421875 3.3228125 46.09625 3.328125 47.6953125 C3.3374707 49.11859863 3.34681641 50.54188477 3.35644531 52.00830078 C2.97689752 56.25871611 2.15497305 60.84502695 -1 64 C-2.65 64 -4.3 64 -6 64 C-5 62 -5 62 -2 61 C0.17093168 56.65813665 -0.74661989 50.72644133 -0.68359375 45.8984375 C-0.66281265 44.59170074 -0.64203156 43.28496399 -0.62062073 41.93862915 C-0.55506338 37.75080791 -0.49621143 33.56292228 -0.4375 29.375 C-0.39432067 26.54165992 -0.35070658 23.70832643 -0.30664062 20.875 C-0.19937564 13.9167332 -0.09812564 6.95840144 0 0 Z " fill="#EEEDEC" transform="translate(626,559)"/>
<path d="M0 0 C1 4 1 4 -1.6875 9.0625 C-5 14 -5 14 -9 17 C-12.75 16.6875 -12.75 16.6875 -16 16 C-16 11.40803442 -15.04625384 8.09250769 -13 4 C-8 3 -8 3 -3 6 C-2.34 4.35 -1.68 2.7 -1 1 C-0.67 0.67 -0.34 0.34 0 0 Z " fill="#EBEAEA" transform="translate(527,440)"/>
<path d="M0 0 C0.66 1.32 1.32 2.64 2 4 C1.34 4 0.68 4 0 4 C-0.66 5.32 -1.32 6.64 -2 8 C-2.969375 9.5675 -3.93875 11.135 -4.9375 12.75 C-8.55215285 18.76562664 -10.71402722 24.28416334 -11.875 31.25 C-13.11806187 36.49848346 -13.82847846 37.0494116 -18 40 C-19.82522226 43.61720963 -19.82522226 43.61720963 -21 47 C-21.66 47 -22.32 47 -23 47 C-21.67655494 37.73588457 -17.25151239 30.19030408 -13 22 C-10.91406707 17.74662345 -8.83478245 13.49013108 -6.76171875 9.23046875 C-5 6 -5 6 -2 3 C-1.34 2.01 -0.68 1.02 0 0 Z " fill="#DEDFDE" transform="translate(538,384)"/>
<path d="M0 0 C1.32 0.33 2.64 0.66 4 1 C3.01 1.99 2.02 2.98 1 4 C0.20819632 6.74057401 0.20819632 6.74057401 -0.2109375 9.890625 C-0.40123535 11.06866699 -0.5915332 12.24670898 -0.78759766 13.46044922 C-0.98144043 14.71100098 -1.1752832 15.96155273 -1.375 17.25 C-3.71399268 31.3251166 -6.2619881 45.34931746 -15 57 C-15.66 57 -16.32 57 -17 57 C-15 52 -15 52 -12.625 47.125 C-7.28026497 35.29134913 -5.28710436 22.70217167 -3.39428711 9.94848633 C-2.20754676 2.20754676 -2.20754676 2.20754676 0 0 Z " fill="#EFEFED" transform="translate(399,511)"/>
<path d="M0 0 C3.3125 0.1875 3.3125 0.1875 7 1 C7.99 2.65 8.98 4.3 10 6 C9.67 7.32 9.34 8.64 9 10 C8.34 10 7.68 10 7 10 C6.67 10.99 6.34 11.98 6 13 C3.36 13.33 0.72 13.66 -2 14 C-2.6875 9.25 -2.6875 9.25 -3 4 C-2.01 2.68 -1.02 1.36 0 0 Z " fill="#B6B4B6" transform="translate(740,508)"/>
<path d="M0 0 C0.495 1.485 0.495 1.485 1 3 C-0.32 2.67 -1.64 2.34 -3 2 C-12.93627558 0.01274488 -19.8907864 1.30605689 -28.6875 6.625 C-33.67537471 11.74768214 -37.35038848 17.37597119 -40 24 C-40.66 24 -41.32 24 -42 24 C-40.07296139 14.36480693 -34.81058499 7.7430772 -27 2 C-17.92278003 -2.65804709 -9.6218732 -3.84874928 0 0 Z " fill="#EEEDEC" transform="translate(327,511)"/>
<path d="M0 0 C4.78488933 2.8709336 6.47242524 4.23649372 9 9 C8.67 10.32 8.34 11.64 8 13 C6.68 13 5.36 13 4 13 C4 11.35 4 9.7 4 8 C0.25767376 4.25767376 -1.81458148 4.24306649 -7 4 C-10.4260261 5.79819816 -10.4260261 5.79819816 -11 10 C-11.66 9.67 -12.32 9.34 -13 9 C-13 7.35 -13 5.7 -13 4 C-8.79506866 0.20530586 -5.58749917 -0.71113626 0 0 Z " fill="#CECDCD" transform="translate(552,378)"/>
<path d="M0 0 C1.37542186 4.12626559 -0.06908805 6.97137481 -1.16796875 11.05078125 C-2.59135925 17.80687418 -3.01106166 24.66225779 -3.5703125 31.53515625 C-4 36 -4 36 -5 39 C-6.32 38.67 -7.64 38.34 -9 38 C-8.505 37.505 -8.505 37.505 -8 37 C-7.66573944 35.02665678 -7.38742342 33.04378565 -7.1328125 31.05859375 C-6.96910156 29.83462891 -6.80539062 28.61066406 -6.63671875 27.34960938 C-6.2992204 24.76942159 -5.96579517 22.18869731 -5.63671875 19.60742188 C-3.45880853 3.45880853 -3.45880853 3.45880853 0 0 Z " fill="#EEEFED" transform="translate(609,488)"/>
<path d="M0 0 C1.32 0.99 2.64 1.98 4 3 C2.48019531 3.05607422 2.48019531 3.05607422 0.9296875 3.11328125 C-0.40835938 3.17902344 -1.74640625 3.24476563 -3.125 3.3125 C-4.44757812 3.37050781 -5.77015625 3.42851562 -7.1328125 3.48828125 C-11.08037691 4.01063573 -13.56149515 5.0614806 -17 7 C-17.99 7.33 -18.98 7.66 -20 8 C-20.66 9.32 -21.32 10.64 -22 12 C-24 15.25 -24 15.25 -26 18 C-26.66 18 -27.32 18 -28 18 C-26.74357779 11.71788895 -23.58727446 8.23566519 -19 4 C-12.95226298 0.71987145 -6.86809141 -0.49949756 0 0 Z " fill="#EEEFED" transform="translate(637,470)"/>
<path d="M0 0 C0.33 0.66 0.66 1.32 1 2 C-0.06284531 4.57747227 -1.22482004 7.11453973 -2.4375 9.625 C-3.09621094 10.99914062 -3.75492188 12.37328125 -4.43359375 13.7890625 C-4.95050781 14.84867187 -5.46742188 15.90828125 -6 17 C-4.68 17.66 -3.36 18.32 -2 19 C-2 19.66 -2 20.32 -2 21 C-3.32 21.33 -4.64 21.66 -6 22 C-6.99 24.475 -6.99 24.475 -8 27 C-8.99 26.34 -9.98 25.68 -11 25 C-10.505 23.515 -10.505 23.515 -10 22 C-9.34 22 -8.68 22 -8 22 C-8 20.865625 -8 19.73125 -8 18.5625 C-8 17.04166667 -8 15.52083333 -8 14 C-8.33 13.34 -8.66 12.68 -9 12 C-7.73248793 9.30142592 -6.40081931 6.63184235 -5 4 C-4.67 4.66 -4.34 5.32 -4 6 C-4.33 6.66 -4.66 7.32 -5 8 C-4.34 8 -3.68 8 -3 8 C-2.67 6.35 -2.34 4.7 -2 3 C-1.34 2.01 -0.68 1.02 0 0 Z " fill="#A19FA1" transform="translate(520,423)"/>
<path d="M0 0 C0.33 0.99 0.66 1.98 1 3 C0.67 3.33 0.34 3.66 0 4 C-0.144375 5.155 -0.28875 6.31 -0.4375 7.5 C-0.623125 8.655 -0.80875 9.81 -1 11 C-1.99 11.495 -1.99 11.495 -3 12 C-2.67 12.99 -2.34 13.98 -2 15 C-1.34 15 -0.68 15 0 15 C-0.33 16.32 -0.66 17.64 -1 19 C-2.32 19 -3.64 19 -5 19 C-7.30338921 14.39322158 -7.1185695 12.90449703 -6 8 C-3 3 -3 3 0 0 Z " fill="#DBD9DA" transform="translate(513,434)"/>
<path d="M0 0 C1.32 1.32 2.64 2.64 4 4 C3.67 5.65 3.34 7.3 3 9 C2.01 8.67 1.02 8.34 0 8 C-0.33 7.01 -0.66 6.02 -1 5 C-4.4447555 3.27762225 -8.2190749 3.94598678 -12 4 C-8.87248708 -2.25502584 -6.55155447 -1.2904577 0 0 Z " fill="#242222" transform="translate(553,382)"/>
</svg>
