<?xml version="1.0" encoding="UTF-8"?>
<!-- Generated by @neplex/vectorizer (Using visioncortex VTracer) -->
<svg version="1.1" xmlns="http://www.w3.org/2000/svg" width="1080" height="1080">
<path d="M0 0 C8 9.142857 8 9.142857 8 24 C5 27 5 27 -2 28 C-6 22 -6 22 -7 15 C-9.521749 13.552786 -9.521749 13.552786 -15 14 C-23.68962 24.862024 -20.175885 26.045349 -21 45 C-19.02 44.505 -19.02 44.505 -17 44 C-17.33 43.34 -17.66 42.68 -18 42 C-16 40 -16 40 -9 38 C-7.02 38 -5.04 38 -3 38 C-2.34 38.99 -1.68 39.98 -1 41 C0.32 41 1.64 41 3 41 C3.66 40.01 4.32 39.02 5 38 C14 38 14 38 21 42 C26.044317 47.044317 26.127601 52.020808 27 59 C29.97 67.91 32.94 76.82 36 86 C36.33 87.32 36.66 88.64 37 90 C37.66 90 38.32 90 39 90 C41.906165 80.733032 41.906165 80.733032 41 72 C41 69.36 41 66.72 41 64 C40.67 63.01 40.34 62.02 40 61 C45.454545 40.545455 45.454545 40.545455 50 36 C60 36 60 36 68 37 C71 42 71 42 72 54 C70.02 54.99 70.02 54.99 68 56 C67.67 58.97 67.34 61.94 67 65 C64 72 64 72 60 77 C51.542836 99.053835 51.542836 99.053835 52 111 C51.01 112.65 50.02 114.3 49 116 C48.34 116 47.68 116 47 116 C47 118.97 47 121.94 47 125 C46.01 126.98 45.02 128.96 44 131 C42.35 131 40.7 131 39 131 C38.01 133.97 38.01 133.97 37 137 C33 143 33 143 28 146 C25.36 147.65 22.72 149.3 20 151 C16 152 16 152 7 152 C5.68 151.01 4.36 150.02 3 149 C2.67 149.66 2.34 150.32 2 151 C1.34 151 0.68 151 0 151 C-1 146 -1 146 -1 137 C4 132 4 132 9 131 C9 131.66 9 132.32 9 133 C16.650791 133.759257 16.650791 133.759257 23 127 C29.63847 116.9178 29.63847 116.9178 29 108 C25.362976 97.343872 25.362976 97.343872 21 89 C19.02 83.72 17.04 78.44 15 73 C13.68 70.03 12.36 67.06 11 64 C10.01 64.66 9.02 65.32 8 66 C6.68 65.67 5.36 65.34 4 65 C4.33 62.69 4.66 60.38 5 58 C3.35 58 1.7 58 0 58 C-0.99 57.34 -1.98 56.68 -3 56 C-3.99 56.66 -4.98 57.32 -6 58 C-12.435 58.495 -12.435 58.495 -19 59 C-19.0536 70.145782 -19.092606 81.291636 -19.125 92.4375 C-19.148203 98.644336 -19.171406 104.851172 -19.195312 111.246094 C-19.130859 116.114883 -19.066406 120.983672 -19 126 C-18.01 126.495 -18.01 126.495 -17 127 C-19 134 -19 134 -23 141 C-23 142.65 -23 144.3 -23 146 C-23.99 146.99 -24.98 147.98 -26 149 C-26.66 150.65 -27.32 152.3 -28 154 C-32 156 -32 156 -45 156 C-47.31 155.01 -49.62 154.02 -52 153 C-56.181818 142.545455 -56.181818 142.545455 -54 136 C-53.67 135.67 -53.34 135.34 -53 135 C-48.38 135 -43.76 135 -39 135 C-32.893627 110.574509 -34.943218 86.097707 -35 61 C-37.64 61 -40.28 61 -43 61 C-46 59 -46 59 -47 55 C-47.33 55.99 -47.66 56.98 -48 58 C-48 50 -48 50 -46 48 C-42.7 48 -39.4 48 -36 48 C-34.411673 33.507013 -34.411673 33.507013 -37 20 C-33.806452 9.354839 -33.806452 9.354839 -24 2 C-15.162522 -1.314054 -9.268217 -1.324031 0 0 Z " fill="#010101" transform="translate(660,472)"/>
<path d="M0 0 C9 1 9 1 14 4 C14.66 5.65 15.32 7.3 16 9 C16.66 9 17.32 9 18 9 C20 15 20 15 21 38 C21.66 38 22.32 38 23 38 C23.66 36.68 24.32 35.36 25 34 C25 36.31 25 38.62 25 41 C26.485 41.495 26.485 41.495 28 42 C26.68 42.33 25.36 42.66 24 43 C23.34 51.58 22.68 60.16 22 69 C18 73 18 73 14 76 C12.02 76 10.04 76 8 76 C3 71 3 71 1 67 C-1.64 69.31 -4.28 71.62 -7 74 C-14 77 -14 77 -24 77 C-33 72 -33 72 -39 55 C-40.379025 48.104876 -40.561376 41.017981 -41 34 C-41.66 33.67 -42.32 33.34 -43 33 C-42 13 -42 13 -39 8 C-36.69 7.01 -34.38 6.02 -32 5 C-27 7 -27 7 -23 10 C-22.538916 23.329527 -22.207079 36.664108 -22 50 C-21.139602 55.091045 -21.139602 55.091045 -19 60 C-16.03 60 -13.06 60 -10 60 C-1.543634 43.087268 -1.85115 31.576445 -1 12 C-0.67 11.34 -0.34 10.68 0 10 C-0.66 10 -1.32 10 -2 10 C-2 8.68 -2 7.36 -2 6 C-1.34 6 -0.68 6 0 6 C-0.495 3.525 -0.495 3.525 -1 1 C-0.67 0.67 -0.34 0.34 0 0 Z " fill="#070707" transform="translate(458,509)"/>
<path d="M0 0 C2.475 2.97 2.475 2.97 5 6 C3 15 3 15 -1 18 C-8 18 -8 18 -12 15 C-13.65 14.67 -15.3 14.34 -17 14 C-16.505 12.515 -16.505 12.515 -16 11 C-25.019507 10.473315 -25.019507 10.473315 -33 14 C-39.698496 20.976289 -39.698496 20.976289 -42 26 C-42.66 26 -43.32 26 -44 26 C-45.760465 41.844182 -44.959573 51.56064 -36 65 C-26.229342 71.293617 -26.229342 71.293617 -14 71 C-11.03 70.01 -11.03 70.01 -8 69 C-5.03 69 -2.06 69 1 69 C3.603417 71.603417 2 76.318213 2 80 C-5.966083 85.310722 -12.510706 86.945634 -22 88 C-22.33 88.66 -22.66 89.32 -23 90 C-23.33 89.67 -23.66 89.34 -24 89 C-27.3 88.34 -30.6 87.68 -34 87 C-47.837501 79.452272 -51.819058 75.261361 -61 62 C-62.317073 29.95122 -62.317073 29.95122 -58 17 C-57.34 16.67 -56.68 16.34 -56 16 C-55.34 14.35 -54.68 12.7 -54 11 C-49.934968 4.902452 -47.360649 3.180325 -41 0 C-39.35 -0.99 -37.7 -1.98 -36 -3 C-35.34 -3 -34.68 -3 -34 -3 C-33.67 -3.99 -33.34 -4.98 -33 -6 C-20.478025 -9.130494 -10.839044 -6.021691 0 0 Z " fill="#070707" transform="translate(407,500)"/>
<path d="M0 0 C1 1 1 1 1 8 C-5.653413 12.435608 -14.734757 9.11773 -22 8 C-22 8.66 -22 9.32 -22 10 C-22.99 10.495 -22.99 10.495 -24 11 C-24 12.98 -24 14.96 -24 17 C-14.610243 24.565961 -14.610243 24.565961 -2 32 C3 38 3 38 3 52 C-1 60 -1 60 -9 65 C-20 68 -20 68 -29 69 C-29.99 69.495 -29.99 69.495 -31 70 C-41.85 65.35 -41.85 65.35 -45 58 C-45 56.02 -45 54.04 -45 52 C-40 48 -40 48 -38 48 C-37.67 47.01 -37.34 46.02 -37 45 C-34.03 45 -31.06 45 -28 45 C-27.67 45.99 -27.34 46.98 -27 48 C-25.35 48 -23.7 48 -22 48 C-21.34 47.01 -20.68 46.02 -20 45 C-21.98 44.34 -23.96 43.68 -26 43 C-26 42.34 -26 41.68 -26 41 C-27.32 40.67 -28.64 40.34 -30 40 C-30.66 38.68 -31.32 37.36 -32 36 C-33.32 35.34 -34.64 34.68 -36 34 C-36 32.68 -36 31.36 -36 30 C-36.66 29.67 -37.32 29.34 -38 29 C-37.01 28.505 -37.01 28.505 -36 28 C-37.32 25.03 -38.64 22.06 -40 19 C-40 12 -40 12 -35 2 C-24.47846 -6.417232 -11.499581 -7.666388 0 0 Z " fill="#000000" transform="translate(574,517)"/>
<path d="M0 0 C7 1 7 1 10 3 C9.67 11.25 9.34 19.5 9 28 C7.68 28 6.36 28 5 28 C5 29.65 5 31.3 5 33 C4.01 33.33 3.02 33.66 2 34 C2 37.63 2 41.26 2 45 C-0.59155 50.701411 -3.199206 56.398413 -6 62 C-6.99 62 -7.98 62 -9 62 C-13 57 -13 57 -13 55 C-13.99 54.505 -13.99 54.505 -15 54 C-14.34 54 -13.68 54 -13 54 C-15.117851 47.175042 -15.117851 47.175042 -20 38 C-21.65 38 -23.3 38 -25 38 C-25.33 39.32 -25.66 40.64 -26 42 C-33 48 -33 48 -38 49 C-39.65 47.02 -41.3 45.04 -43 43 C-42 39 -42 39 -33 33 C-32.34 33 -31.68 33 -31 33 C-30.67 32.01 -30.34 31.02 -30 30 C-34.95 28.68 -39.9 27.36 -45 26 C-49.455 24.02 -49.455 24.02 -54 22 C-54 21.34 -54 20.68 -54 20 C-53.34 20 -52.68 20 -52 20 C-52 19.34 -52 18.68 -52 18 C-39 14 -39 14 -36 14 C-35.34 12.68 -34.68 11.36 -34 10 C-27 6 -27 6 -19 6 C-17.68 5.01 -16.36 4.02 -15 3 C-10 2 -10 2 -5 4 C-3.35 2.68 -1.7 1.36 0 0 Z " fill="#050505" transform="translate(775,459)"/>
<path d="M0 0 C7 1 7 1 12 4 C12.66 6.31 13.32 8.62 14 11 C16.64 8.03 19.28 5.06 22 2 C26 0 26 0 35 0 C38 4 38 4 38 13 C32 15 32 15 29 15 C29 15.66 29 16.32 29 17 C27.35 17.66 25.7 18.32 24 19 C16.671394 32.191491 17.984063 33.751697 17.625 50.6875 C17.41875 56.400625 17.2125 62.11375 17 68 C14 70 14 70 4 70 C-0.791196 60.417609 1.382379 48.706613 1 38 C-0.32 28.43 -1.64 18.86 -3 9 C-3.66 8.67 -4.32 8.34 -5 8 C-4 3 -4 3 0 0 Z " fill="#000000" transform="translate(488,514)"/>
<path d="M0 0 C0.99 0 1.98 0 3 0 C3.33 0.99 3.66 1.98 4 3 C5.65 3.99 7.3 4.98 9 6 C13.736114 10.736114 10.607414 19.310262 10.9375 26 C11.288125 32.27 11.63875 38.54 12 45 C12.66 45.33 13.32 45.66 14 46 C14 52.6 14 59.2 14 66 C12.68 67.32 11.36 68.64 10 70 C7.03 70 4.06 70 1 70 C-8.133663 60.866337 -3.472751 50.73343 -4 35.9375 C-2.942498 20.444012 -2.942498 20.444012 -6 6 C-4 4 -2 2 0 0 Z " fill="#010101" transform="translate(593,513)"/>
<path d="M0 0 C1.65 0.33 3.3 0.66 5 1 C11.93 1.33 18.86 1.66 26 2 C28.475 2.99 28.475 2.99 31 4 C31.66 6.64 32.32 9.28 33 12 C33.66 12 34.32 12 35 12 C35.495 15.96 35.495 15.96 36 20 C31.147145 23.639641 26.244029 26 20 26 C20 25.34 20 24.68 20 24 C17.69 24 15.38 24 13 24 C13 24.99 13 25.98 13 27 C14.98 27.66 16.96 28.32 19 29 C20.32 31.31 21.64 33.62 23 36 C24.32 36.99 25.64 37.98 27 39 C27 39.66 27 40.32 27 41 C29.97 41.495 29.97 41.495 33 42 C37.458765 46.458765 36 51.798766 36 58 C35.67 60.64 35.34 63.28 35 66 C34.34 66 33.68 66 33 66 C33 67.98 33 69.96 33 72 C21 81 21 81 -1 81 C-1 80.01 -1 79.02 -1 78 C6.425 77.01 6.425 77.01 14 76 C23.824925 72.831607 23.824925 72.831607 29 67 C31.866578 60.731082 31.866578 60.731082 31 48 C25.249763 40.429993 25.249763 40.429993 11 33 C8.69 31.02 6.38 29.04 4 27 C4 25.02 4 23.04 4 21 C4.99 20.67 5.98 20.34 7 20 C7 19.34 7 18.68 7 18 C16 18 16 18 20 19 C26.32918 19.521749 26.32918 19.521749 29 18 C29 15.69 29 13.38 29 11 C19.061726 4.374484 11.489784 6.085036 0 8 C-2.97 7.505 -2.97 7.505 -6 7 C-5.67 6.01 -5.34 5.02 -5 4 C-3.02 3.67 -1.04 3.34 1 3 C0.67 2.01 0.34 1.02 0 0 Z " fill="#1C1C1C" transform="translate(545,507)"/>
<path d="M0 0 C0.33 0 0.66 0 1 0 C1.495 10.395 1.495 10.395 2 21 C4.454531 30.212179 4.454531 30.212179 8 39 C8 39.99 8 40.98 8 42 C5 44 5 44 -2 46 C-2.99 46.66 -3.98 47.32 -5 48 C-6.65 48 -8.3 48 -10 48 C-10.33 49.32 -10.66 50.64 -11 52 C-14.465 52.495 -14.465 52.495 -18 53 C-19.98 53.495 -19.98 53.495 -22 54 C-24.97 54 -27.94 54 -31 54 C-31.66 53.34 -32.32 52.68 -33 52 C-33 51.01 -33 50.02 -33 49 C-28.71 48.34 -24.42 47.68 -20 47 C-14.054196 45.176079 -14.054196 45.176079 -9 42 C-9 38.7 -9 35.4 -9 32 C-13.29 32 -17.58 32 -22 32 C-21.67 30.68 -21.34 29.36 -21 28 C-19.35 27.67 -17.7 27.34 -16 27 C-15.34 26.34 -14.68 25.68 -14 25 C-11.03 25 -8.06 25 -5 25 C-4.67 25.33 -4.34 25.66 -4 26 C-2.214071 18.856284 -2.408458 11.352237 -2 4 C-1.34 2.68 -0.68 1.36 0 0 Z " fill="#3E3E3E" transform="translate(417,538)"/>
<path d="M0 0 C4.024922 8.049845 0.359712 18.007191 0 27 C-4.95 27.495 -4.95 27.495 -10 28 C-10.33 28.33 -10.66 28.66 -11 29 C-11 30.65 -11 32.3 -11 34 C-9.515 34.495 -9.515 34.495 -8 35 C-8.66 35 -9.32 35 -10 35 C-9.67 35.99 -9.34 36.98 -9 38 C-5.7 38.66 -2.4 39.32 1 40 C2 43 2 43 1 52 C0.67 52 0.34 52 0 52 C-0.33 49.36 -0.66 46.72 -1 44 C-4.96 44 -8.92 44 -13 44 C-13.66 43.67 -14.32 43.34 -15 43 C-16.210564 50.263385 -16.540673 57.650766 -17 65 C-17.99 65 -18.98 65 -20 65 C-20.226875 58.791875 -20.45375 52.58375 -20.6875 46.1875 C-21.120625 39.855625 -21.55375 33.52375 -22 27 C-23.65 26.01 -25.3 25.02 -27 24 C-27.99 23.34 -28.98 22.68 -30 22 C-29.34 22 -28.68 22 -28 22 C-28 21.34 -28 20.68 -28 20 C-25.03 20 -22.06 20 -19 20 C-18 21 -18 21 -18 27 C-16.02 26.34 -14.04 25.68 -12 25 C-7 24 -7 24 -3 25 C-3 18.73 -3 12.46 -3 6 C-2.67 4.35 -2.34 2.7 -2 1 C-1.34 0.67 -0.68 0.34 0 0 Z " fill="#272727" transform="translate(624,493)"/>
<path d="M0 0 C8.101017 8.101017 10.449214 20.347641 14 31 C15.65 34.3 17.3 37.6 19 41 C21.573097 51.292388 19.253287 54.368973 14 64 C6 71 6 71 -3 71 C-2.01 70.505 -2.01 70.505 -1 70 C-1 69.01 -1 68.02 -1 67 C1.475 66.01 1.475 66.01 4 65 C4.99 63.02 5.98 61.04 7 59 C7.66 59 8.32 59 9 59 C9 58.34 9 57.68 9 57 C10.98 56.34 12.96 55.68 15 55 C13.897522 45.814022 13.897522 45.814022 9 38 C9 31 9 31 10 27 C8.68 26.34 7.36 25.68 6 25 C2 19 2 19 2 11 C1.01 10.67 0.02 10.34 -1 10 C-2 6 -2 6 0 0 Z " fill="#1D1C1B" transform="translate(670,535)"/>
<path d="M0 0 C0 0.66 0 1.32 0 2 C1.98 2 3.96 2 6 2 C13 5 13 5 19 9 C21.475 9.99 21.475 9.99 24 11 C27 15 27 15 26 31 C24.02 31 22.04 31 20 31 C20 27.04 20 23.08 20 19 C17.368932 12.947295 17.368932 12.947295 13 9 C1.138338 7.305477 -6.178699 8.58935 -17 14 C-17.33 14.99 -17.66 15.98 -18 17 C-18.99 16.67 -19.98 16.34 -21 16 C-21.33 14.35 -21.66 12.7 -22 11 C-20.68 10.67 -19.36 10.34 -18 10 C-17.67 8.35 -17.34 6.7 -17 5 C-16.01 5 -15.02 5 -14 5 C-13.67 3.68 -13.34 2.36 -13 1 C-5 -1 -5 -1 0 0 Z " fill="#191918" transform="translate(647,464)"/>
<path d="M0 0 C0.99 0.33 1.98 0.66 3 1 C2.34 1 1.68 1 1 1 C1 1.66 1 2.32 1 3 C8.905694 5.635231 16.948042 7.852811 25 10 C25 10.99 25 11.98 25 13 C21.04 15.64 17.08 18.28 13 21 C13.483561 26.307249 13.483561 26.307249 18 29 C24.969051 26.526137 24.969051 26.526137 29 22 C29.33 21.01 29.66 20.02 30 19 C31.65 18.67 33.3 18.34 35 18 C42 30 42 30 42 35 C38 34 38 34 34 32 C34 31.01 34 30.02 34 29 C30.37 29.33 26.74 29.66 23 30 C22.67 30.99 22.34 31.98 22 33 C19.69 33 17.38 33 15 33 C10 26.75 10 26.75 10 20 C10.33 18.35 10.66 16.7 11 15 C11 14.01 11 13.02 11 12 C10.01 11.67 9.02 11.34 8 11 C8 10.01 8 9.02 8 8 C5.36 7.67 2.72 7.34 0 7 C-0.66 5.35 -1.32 3.7 -2 2 C-1.34 1.34 -0.68 0.68 0 0 Z " fill="#1E1E1D" transform="translate(720,478)"/>
<path d="M0 0 C0 0.33 0 0.66 0 1 C-14 5 -14 5 -22 5 C-22 9.62 -22 14.24 -22 19 C-21.01 19.33 -20.02 19.66 -19 20 C-18.875 52.625 -18.875 52.625 -20 56 C-20 60.29 -20 64.58 -20 69 C-22.475 69.99 -22.475 69.99 -25 71 C-24.67 48.56 -24.34 26.12 -24 3 C-19.71 2.34 -15.42 1.68 -11 1 C-8 -1 -8 -1 0 0 Z " fill="#212121" transform="translate(665,528)"/>
<path d="M0 0 C0.268125 9.301875 0.53625 18.60375 0.8125 28.1875 C-0.432729 53.849753 -0.432729 53.849753 5 62 C7.31 62.33 9.62 62.66 12 63 C12.33 64.65 12.66 66.3 13 68 C12.67 68.33 12.34 68.66 12 69 C10.35 69 8.7 69 7 69 C6.01 68.01 5.02 67.02 4 66 C2.68 65.01 1.36 64.02 0 63 C0 62.34 0 61.68 0 61 C-0.99 60.67 -1.98 60.34 -3 60 C-3.99 54.555 -3.99 54.555 -5 49 C-5.33 47.68 -5.66 46.36 -6 45 C-5.01 44.505 -5.01 44.505 -4 44 C-3.835 36.905 -3.67 29.81 -3.5 22.5 C-3.335 15.405 -3.17 8.31 -3 1 C-1 0 -1 0 0 0 Z " fill="#2F2E2D" transform="translate(589,520)"/>
<path d="M0 0 C0 0.99 0 1.98 0 3 C-1.65 3 -3.3 3 -5 3 C-5.33 4.65 -5.66 6.3 -6 8 C-6.66 8.66 -7.32 9.32 -8 10 C-8.66 11.65 -9.32 13.3 -10 15 C-10.99 16.32 -11.98 17.64 -13 19 C-15.193447 29.967233 -14.22376 40.98616 -13 52 C-13.33 53.65 -13.66 55.3 -14 57 C-22 60 -22 60 -28 60 C-28 59.01 -28 58.02 -28 57 C-28.66 56.67 -29.32 56.34 -30 56 C-25.545 55.505 -25.545 55.505 -21 55 C-20.01 54.505 -20.01 54.505 -19 54 C-18.855625 48.39 -18.71125 42.78 -18.5625 37 C-17.843137 13.980392 -17.843137 13.980392 -10 3 C-8.68 3 -7.36 3 -6 3 C-6 2.34 -6 1.68 -6 1 C-3 0 -3 0 0 0 Z " fill="#070707" transform="translate(523,528)"/>
<path d="M0 0 C0.99 0.33 1.98 0.66 3 1 C8.50551 20.269287 8.290674 40.138858 9 60 C10.5 64 10.5 64 13 65 C13 65.99 13 66.98 13 68 C8 67 8 67 5 64 C4.835 58.699375 4.67 53.39875 4.5 47.9375 C4.335 42.678125 4.17 37.41875 4 32 C3.01 31.34 2.02 30.68 1 30 C-4.005979 22.491031 -1 12.024658 -1 3 C-0.67 2.01 -0.34 1.02 0 0 Z " fill="#232120" transform="translate(482,520)"/>
<path d="M0 0 C1.98 1.65 3.96 3.3 6 5 C6 7.64 6 10.28 6 13 C0 18 0 18 -5 19 C-7.31 18.01 -9.62 17.02 -12 16 C-12.66 12.7 -13.32 9.4 -14 6 C-8 0 -8 0 0 0 Z " fill="#000000" transform="translate(599,485)"/>
<path d="M0 0 C0.33 0.99 0.66 1.98 1 3 C1.99 2.67 2.98 2.34 4 2 C4.33 2.66 4.66 3.32 5 4 C4.01 4.495 4.01 4.495 3 5 C2.67 12.59 2.34 20.18 2 28 C-1.4 48.4 -1.4 48.4 -7 54 C-9.97 54 -12.94 54 -16 54 C-17.485 50.535 -17.485 50.535 -19 47 C-18.34 45.35 -17.68 43.7 -17 42 C-13 44 -13 44 -12 45 C-10.35 45 -8.7 45 -7 45 C-4.181927 38.547921 -4.181927 38.547921 -3 25 C-2.67 24.34 -2.34 23.68 -2 23 C-1.67 17.39 -1.34 11.78 -1 6 C-0.67 4.02 -0.34 2.04 0 0 Z " fill="#1A1A19" transform="translate(455,516)"/>
<path d="M0 0 C6 1 6 1 14 9 C21 19 21 19 20 26 C18.35 26.33 16.7 26.66 15 27 C-1 9 -1 9 -1 1 C-0.67 0.67 -0.34 0.34 0 0 Z " fill="#020202" transform="translate(319,471)"/>
<path d="M0 0 C4.027682 8.055364 1 17.993829 1 27 C3.363318 33.387546 3.363318 33.387546 9 35 C9 35.66 9 36.32 9 37 C10.485 36.505 10.485 36.505 12 36 C13.65 37.32 15.3 38.64 17 40 C20.96 41.32 24.92 42.64 29 44 C29.33 42.68 29.66 41.36 30 40 C32.64 40 35.28 40 38 40 C38 40.33 38 40.66 38 41 C35.69 41 33.38 41 31 41 C31 42.65 31 44.3 31 46 C28 47 28 47 17 47 C7.432713 42.216357 4.711054 40.137686 -1 31 C-4.357611 19.807965 -4.528319 12.377435 -2 1 C-1.34 0.67 -0.68 0.34 0 0 Z " fill="#242322" transform="translate(365,525)"/>
<path d="M0 0 C0.66 0 1.32 0 2 0 C2.297872 50.638298 2.297872 50.638298 -3 63 C-3.99 63 -4.98 63 -6 63 C-6 50 -6 50 -4 41 C-1.720238 24.372341 -1.720238 24.372341 -1 5 C-0.67 3.35 -0.34 1.7 0 0 Z " fill="#272727" transform="translate(624,545)"/>
<path d="M0 0 C1.65 0 3.3 0 5 0 C3.02 2.31 1.04 4.62 -1 7 C-5.521749 14.552786 -5.521749 14.552786 -5 22 C-3.68 25.3 -2.36 28.6 -1 32 C-3.97 32.495 -3.97 32.495 -7 33 C-9 31 -9 31 -12 19 C-13.32 19 -14.64 19 -16 19 C-16.33 17.35 -16.66 15.7 -17 14 C-16.34 13.67 -15.68 13.34 -15 13 C-14.67 9.7 -14.34 6.4 -14 3 C-13.34 3 -12.68 3 -12 3 C-11.01 4.485 -11.01 4.485 -10 6 C-5.646447 5.117851 -5.646447 5.117851 -1 2 C-0.67 1.34 -0.34 0.68 0 0 Z " fill="#424242" transform="translate(540,514)"/>
<path d="M0 0 C1.32 0 2.64 0 4 0 C3.67 1.65 3.34 3.3 3 5 C2.34 8.96 1.68 12.92 1 17 C0.67 18.98 0.34 20.96 0 23 C0.66 23.66 1.32 24.32 2 25 C2.33 28.3 2.66 31.6 3 35 C3.99 36.32 4.98 37.64 6 39 C6 39.66 6 40.32 6 41 C5.34 41 4.68 41 4 41 C4 40.34 4 39.68 4 39 C2.35 38.67 0.7 38.34 -1 38 C-8.624114 25.293144 -5 30.334902 -5 6 C-4.34 5.01 -3.68 4.02 -3 3 C-2.01 3 -1.02 3 0 3 C0 2.01 0 1.02 0 0 Z " fill="#040404" transform="translate(370,521)"/>
<path d="M0 0 C0 9.006171 -0.358337 18.016717 -1 27 C-3.64 27.66 -6.28 28.32 -9 29 C-9 8 -9 8 -8 1 C-5 0 -5 0 0 0 Z " fill="#050505" transform="translate(377,455)"/>
<path d="M0 0 C6 0 6 0 9 2 C9.66 4.97 10.32 7.94 11 11 C12.65 11.66 14.3 12.32 16 13 C15.01 13.66 14.02 14.32 13 15 C8.858073 12.929037 4.926923 10.454327 1 8 C0.34 9.65 -0.32 11.3 -1 13 C-1.66 13 -2.32 13 -3 13 C-3.620533 25.816087 -3.620533 25.816087 0 29 C-0.66 29.33 -1.32 29.66 -2 30 C-1.01 30.66 -0.02 31.32 1 32 C-1.31 32 -3.62 32 -6 32 C-6 6 -6 6 0 0 Z " fill="#282827" transform="translate(645,485)"/>
<path d="M0 0 C14 3 14 3 25 7 C25 7.99 25 8.98 25 10 C25.99 10 26.98 10 28 10 C27.34 11.32 26.68 12.64 26 14 C15.581573 14 7.20897 10.604485 -2 6 C-1.34 5.67 -0.68 5.34 0 5 C0 3.35 0 1.7 0 0 Z " fill="#010101" transform="translate(295,517)"/>
<path d="M0 0 C2.64 2.31 5.28 4.62 8 7 C7.67 8.98 7.34 10.96 7 13 C6.34 13 5.68 13 5 13 C5 12.01 5 11.02 5 10 C1.37 9.01 -2.26 8.02 -6 7 C-10.62 5.68 -15.24 4.36 -20 3 C-20 4.65 -20 6.3 -20 8 C-20.99 8 -21.98 8 -23 8 C-24 2 -24 2 -23 0 C-12 -1 -12 -1 0 0 Z " fill="#1D1D1D" transform="translate(315,514)"/>
<path d="M0 0 C3.465 1.485 3.465 1.485 7 3 C7 5.97 7 8.94 7 12 C8.32 16.29 9.64 20.58 11 25 C11.66 23.68 12.32 22.36 13 21 C14.32 20.34 15.64 19.68 17 19 C16.01 24.61 15.02 30.22 14 36 C12.68 36 11.36 36 10 36 C8.02 29.4 6.04 22.8 4 16 C2.35 11.05 0.7 6.1 -1 1 C-0.67 0.67 -0.34 0.34 0 0 Z " fill="#1E1F1E" transform="translate(686,526)"/>
<path d="M0 0 C0 0.66 0 1.32 0 2 C-9 8 -9 8 -13 9 C-18.365441 13.926912 -18.365441 13.926912 -22 21 C-21.34 21.33 -20.68 21.66 -20 22 C-23 23 -23 23 -28 22 C-28.33 20.68 -28.66 19.36 -29 18 C-15 0 -15 0 0 0 Z " fill="#171716" transform="translate(373,495)"/>
<path d="M0 0 C-2.745266 5.490533 -6.811855 6.887113 -12 10 C-12.66 10 -13.32 10 -14 10 C-14.33 10.99 -14.66 11.98 -15 13 C-15.66 13 -16.32 13 -17 13 C-17 12.01 -17 11.02 -17 10 C-18.32 10 -19.64 10 -21 10 C-21 10.99 -21 11.98 -21 13 C-22.65 13.33 -24.3 13.66 -26 14 C-23 8 -23 8 -16 1 C-4.545455 -2.272727 -4.545455 -2.272727 0 0 Z " fill="#242322" transform="translate(391,511)"/>
<path d="M0 0 C2.31 0.66 4.62 1.32 7 2 C11.333333 10.666667 8.641371 21.317011 9 31 C4 36 4 36 2 37 C0.68 36.34 -0.64 35.68 -2 35 C-1.67 34.01 -1.34 33.02 -1 32 C0.65 32 2.3 32 4 32 C4 27.38 4 22.76 4 18 C4.33 13.71 4.66 9.42 5 5 C2.69 5.33 0.38 5.66 -2 6 C-1 1 -1 1 0 0 Z " fill="#1D1C1C" transform="translate(372,450)"/>
<path d="M0 0 C0.66 0 1.32 0 2 0 C2.495 1.98 2.495 1.98 3 4 C1.68 5.32 0.36 6.64 -1 8 C-1.66 9.32 -2.32 10.64 -3 12 C-10.590891 13.265148 -18.317682 13.548099 -26 14 C-26.66 12.68 -27.32 11.36 -28 10 C-28.66 9.34 -29.32 8.68 -30 8 C-29.34 8 -28.68 8 -28 8 C-27.67 7.01 -27.34 6.02 -27 5 C-25.68 5.99 -24.36 6.98 -23 8 C-13.59766 8.557086 -13.59766 8.557086 -4 4 C-2.68 2.68 -1.36 1.36 0 0 Z " fill="#232120" transform="translate(690,615)"/>
<path d="M0 0 C0.66 0 1.32 0 2 0 C4.030747 10.153733 3.602032 20.652834 4 31 C1 32 1 32 -2 32 C-1.34 21.44 -0.68 10.88 0 0 Z " fill="#171716" transform="translate(343,526)"/>
<path d="M0 0 C2.31 0 4.62 0 7 0 C7 0.66 7 1.32 7 2 C5.02 2.66 3.04 3.32 1 4 C0.67 5.65 0.34 7.3 0 9 C-5 12 -5 12 -9 13 C-9.66 11.68 -10.32 10.36 -11 9 C-11.99 9.33 -12.98 9.66 -14 10 C-14 9.01 -14 8.02 -14 7 C-12.35 7 -10.7 7 -9 7 C-8.01 8.485 -8.01 8.485 -7 10 C-6.34 10 -5.68 10 -5 10 C-4.67 9.01 -4.34 8.02 -4 7 C-3.34 6.67 -2.68 6.34 -2 6 C-1.67 4.35 -1.34 2.7 -1 1 C-0.67 0.67 -0.34 0.34 0 0 Z " fill="#2B2B2B" transform="translate(539,508)"/>
<path d="M0 0 C0.33 0.66 0.66 1.32 1 2 C2.32 2 3.64 2 5 2 C4.01 6.62 3.02 11.24 2 16 C1.67 16 1.34 16 1 16 C1 14.35 1 12.7 1 11 C-0.65 11.33 -2.3 11.66 -4 12 C-3 6 -3 6 0 0 Z " fill="#343432" transform="translate(344,515)"/>
</svg>
