<svg xmlns="http://www.w3.org/2000/svg" xmlns:xlink="http://www.w3.org/1999/xlink" width="1024" zoomAndPan="magnify" viewBox="0 0 768 383.999986" height="512" preserveAspectRatio="xMidYMid meet" version="1.0"><path fill="#fdfdfd" d="M 554.746094 97.328125 C 563.578125 104.300781 563.578125 104.300781 566.132812 109.089844 C 567.050781 117.25 567.558594 122.070312 562.839844 128.949219 C 558.605469 131.679688 558.605469 131.679688 551.074219 130.171875 C 546.632812 125.730469 547.148438 121.199219 546.558594 115.113281 C 543.578125 115.113281 540.59375 115.113281 537.523438 115.113281 C 536.03125 114.617188 534.542969 114.121094 533.003906 113.609375 C 525.078125 123.070312 525.242188 130.363281 525.289062 142.410156 C 525.28125 143.957031 525.277344 145.503906 525.269531 147.097656 C 524.496094 154.242188 524.496094 154.242188 526.980469 160.289062 C 532.789062 160.339844 538.582031 160.1875 544.386719 160.050781 C 549.570312 160.289062 549.570312 160.289062 552.582031 163.300781 C 552.582031 166.285156 552.582031 169.265625 552.582031 172.335938 C 546.285156 177.058594 544.691406 177.453125 537.242188 177.796875 C 529.167969 177.351562 529.167969 177.351562 526.980469 179.867188 C 526.902344 185.480469 526.917969 191.066406 526.992188 196.679688 C 527.019531 200.207031 527.046875 203.738281 527.070312 207.265625 C 527.117188 212.832031 527.167969 218.394531 527.238281 223.957031 C 527.914062 280.113281 527.914062 280.113281 513.429688 301.839844 C 512.433594 301.839844 511.441406 301.839844 510.417969 301.839844 C 510.417969 302.835938 510.417969 303.828125 510.417969 304.851562 C 502.734375 309.582031 496.777344 310.253906 487.828125 309.371094 C 483.21875 306.921875 483.21875 306.921875 480.300781 303.347656 C 480.300781 294.3125 480.300781 294.3125 481.804688 292.804688 C 484.230469 292.929688 486.652344 293.054688 489.148438 293.183594 C 491.695312 293.058594 494.242188 292.933594 496.863281 292.804688 C 505.644531 278.175781 506.5625 263.617188 506.339844 246.996094 C 506.335938 245.148438 506.328125 243.304688 506.320312 241.402344 C 506.296875 235.570312 506.238281 229.742188 506.183594 223.914062 C 506.160156 219.933594 506.140625 215.953125 506.121094 211.972656 C 506.070312 202.273438 505.992188 192.578125 505.898438 182.878906 C 503.726562 182.445312 501.550781 182.007812 499.3125 181.5625 C 492.347656 179.867188 492.347656 179.867188 489.335938 176.855469 C 489.335938 173.875 489.335938 170.890625 489.335938 167.820312 C 494.523438 164.363281 498.277344 163.996094 504.394531 163.300781 C 504.433594 160.558594 504.472656 157.816406 504.511719 154.992188 C 504.597656 151.328125 504.683594 147.667969 504.769531 144.007812 C 504.792969 142.207031 504.8125 140.40625 504.835938 138.554688 C 505.207031 124.976562 506.464844 111.902344 516.160156 101.5625 C 528.796875 93.632812 540.648438 90.375 554.746094 97.328125 Z M 554.746094 97.328125 " fill-opacity="1" fill-rule="nonzero"/><path fill="#fefefd" d="M 569.144531 154.265625 C 578.179688 154.265625 578.179688 154.265625 584.203125 158.785156 C 586.96875 165.289062 589.40625 171.699219 591.734375 178.359375 C 592.628906 180.890625 593.527344 183.421875 594.453125 186.03125 C 597.085938 193.503906 599.695312 200.984375 602.273438 208.476562 C 602.855469 210.144531 603.4375 211.8125 604.035156 213.53125 C 605.542969 218.332031 606.195312 223.066406 606.792969 228.054688 C 607.785156 228.054688 608.78125 228.054688 609.804688 228.054688 C 610.335938 226.117188 610.867188 224.179688 611.414062 222.183594 C 613.390625 215 615.371094 207.816406 617.359375 200.636719 C 618.21875 197.527344 619.074219 194.417969 619.925781 191.308594 C 621.152344 186.839844 622.390625 182.375 623.628906 177.90625 C 624.367188 175.21875 625.109375 172.53125 625.875 169.757812 C 627.875 163.300781 627.875 163.300781 630.886719 158.785156 C 631.878906 158.785156 632.875 158.785156 633.898438 158.785156 C 633.898438 157.292969 633.898438 155.804688 633.898438 154.265625 C 643.875 153.890625 643.875 153.890625 648.957031 157.277344 C 649.746094 166.691406 648.453125 173.789062 645.09375 182.550781 C 641.507812 192.167969 638.0625 201.804688 634.796875 211.535156 C 633.921875 214.125 633.050781 216.710938 632.148438 219.378906 C 630.367188 224.660156 628.589844 229.941406 626.820312 235.226562 C 611.101562 281.625 611.101562 281.625 599.261719 297.324219 C 598.019531 299 596.777344 300.679688 595.5 302.40625 C 588.980469 309.25 584.542969 310.738281 575.074219 311.441406 C 567.941406 310.898438 563.976562 310.226562 558.605469 304.851562 C 558.230469 298.265625 558.230469 298.265625 558.605469 291.300781 C 563.121094 286.78125 563.121094 286.78125 570.371094 286.125 C 578.226562 285.273438 581.332031 284.277344 587.214844 279.253906 C 588.707031 277.265625 590.199219 275.277344 591.734375 273.230469 C 592.726562 273.230469 593.722656 273.230469 594.746094 273.230469 C 595.023438 270.808594 595.023438 270.808594 595.308594 268.335938 C 596.25 262.6875 596.25 262.6875 599.261719 256.664062 C 598.761719 249.785156 596.527344 244.214844 593.722656 237.960938 C 588.722656 226.597656 584.082031 215.117188 579.5 203.585938 C 578.726562 201.652344 577.957031 199.71875 577.164062 197.726562 C 575.671875 193.980469 574.179688 190.230469 572.699219 186.480469 C 571.414062 183.277344 570.105469 180.078125 568.757812 176.898438 C 565.984375 170.308594 564.628906 166.058594 564.628906 158.785156 C 566.121094 157.292969 567.609375 155.804688 569.144531 154.265625 Z M 569.144531 154.265625 " fill-opacity="1" fill-rule="nonzero"/><path fill="#fefefd" d="M 189.667969 136.195312 C 195.691406 142.21875 195.691406 142.21875 196.351562 147.585938 C 195.691406 152.761719 195.691406 152.761719 191.175781 157.277344 C 183.644531 155.773438 183.644531 155.773438 178 152.667969 C 168.535156 148.351562 161.527344 148.726562 151.648438 151.632812 C 140.488281 156.839844 136.421875 162.730469 130.941406 173.84375 C 128.058594 188.261719 126.382812 204.582031 133.386719 217.984375 C 139.882812 227.003906 145.582031 231.417969 155.035156 237.089844 C 160.515625 237.746094 160.515625 237.746094 166.328125 237.558594 C 169.242188 237.550781 169.242188 237.550781 172.210938 237.542969 C 178.128906 237.3125 178.128906 237.3125 185.152344 234.078125 C 188.132812 234.078125 191.113281 234.078125 194.1875 234.078125 C 197.199219 240.101562 197.199219 240.101562 197.480469 244.523438 C 194.636719 251.863281 189.027344 253.449219 182.140625 256.664062 C 167.050781 260.4375 152.425781 258.648438 138.6875 251.378906 C 122.898438 241.894531 113.453125 229.695312 108.171875 211.789062 C 104.089844 192.300781 105.675781 171.882812 115.507812 154.457031 C 133.730469 131.324219 162.847656 122.203125 189.667969 136.195312 Z M 189.667969 136.195312 " fill-opacity="1" fill-rule="nonzero"/><path fill="#fdfdfc" d="M 215.269531 160.289062 C 220.445312 159.726562 220.445312 159.726562 225.808594 160.289062 C 231.675781 166.15625 230.933594 168.730469 231.046875 176.894531 C 231.09375 179.300781 231.136719 181.703125 231.1875 184.179688 C 231.214844 186.703125 231.242188 189.222656 231.269531 191.820312 C 231.34375 196.789062 231.425781 201.761719 231.515625 206.730469 C 231.542969 208.941406 231.570312 211.152344 231.597656 213.429688 C 231.652344 219.148438 231.652344 219.148438 233.339844 225.042969 C 234.832031 224.296875 234.832031 224.296875 236.351562 223.535156 C 237.84375 226.519531 239.332031 229.5 240.867188 232.570312 C 249.707031 232.867188 249.707031 232.867188 257.433594 231.066406 C 258.425781 229.078125 259.421875 227.089844 260.445312 225.042969 C 261.4375 225.042969 262.433594 225.042969 263.457031 225.042969 C 263.675781 223.425781 263.890625 221.8125 264.117188 220.148438 C 264.960938 214.5 264.960938 214.5 266.46875 208.476562 C 266.539062 205.152344 266.527344 201.824219 266.457031 198.496094 C 266.429688 196.566406 266.40625 194.636719 266.378906 192.644531 C 266.3125 188.574219 266.234375 184.503906 266.144531 180.433594 C 266.125 178.507812 266.101562 176.578125 266.082031 174.589844 C 266.046875 172.824219 266.011719 171.054688 265.980469 169.234375 C 266.46875 164.808594 266.46875 164.808594 270.984375 160.289062 C 277.101562 159.820312 277.101562 159.820312 283.03125 160.289062 C 287.511719 164.769531 286.652344 168.671875 286.945312 174.925781 C 287.0625 177.292969 287.183594 179.660156 287.304688 182.101562 C 287.417969 184.59375 287.53125 187.085938 287.644531 189.65625 C 287.878906 194.535156 288.117188 199.410156 288.355469 204.289062 C 288.46875 206.59375 288.582031 208.898438 288.699219 211.273438 C 289.105469 218.398438 289.800781 225.476562 290.5625 232.570312 C 290.847656 238.175781 290.773438 243.511719 290.5625 249.136719 C 289.566406 250.128906 288.574219 251.125 287.550781 252.148438 C 284.570312 252.148438 281.585938 252.148438 278.515625 252.148438 C 273.300781 245.195312 273.117188 241.070312 272.492188 232.570312 C 267.859375 237.039062 267.859375 237.039062 263.832031 242.265625 C 256 250.851562 251.113281 253.339844 239.457031 254.6875 C 231.925781 254.425781 230.105469 253.503906 223.457031 249.042969 C 209.699219 233.28125 211.980469 215.40625 211.976562 195.585938 C 211.957031 192.703125 211.9375 189.824219 211.917969 186.859375 C 211.917969 184.113281 211.914062 181.371094 211.910156 178.542969 C 211.902344 176.019531 211.898438 173.492188 211.890625 170.894531 C 212.257812 164.808594 212.257812 164.808594 215.269531 160.289062 Z M 215.269531 160.289062 " fill-opacity="1" fill-rule="nonzero"/><path fill="#fefefd" d="M 423.078125 154.265625 C 428.300781 157.019531 428.300781 157.019531 432.113281 160.289062 C 433.429688 165.183594 433.429688 165.183594 433.617188 169.324219 C 431.632812 170.816406 429.644531 172.308594 427.59375 173.84375 C 421.570312 172.335938 421.570312 172.335938 417.335938 170.738281 C 410.355469 168.683594 404.390625 168.527344 397.476562 170.832031 C 396.046875 175.671875 396.046875 175.671875 395.972656 181.371094 C 400.988281 188.679688 406.265625 192.441406 414.042969 196.523438 C 421.242188 200.320312 426.597656 203.984375 432.113281 209.984375 C 433.105469 210.976562 434.101562 211.972656 435.125 212.996094 C 437.386719 222.046875 438.382812 230.507812 434.183594 239.066406 C 425.828125 248.519531 417.660156 254.425781 404.773438 255.589844 C 392.773438 255.90625 384.664062 254.585938 374.890625 247.253906 C 371.878906 243.113281 371.878906 243.113281 372.160156 237.371094 C 372.566406 235.789062 372.96875 234.203125 373.382812 232.570312 C 377.242188 231.441406 377.242188 231.441406 382.417969 231.066406 C 384.933594 232.511719 384.933594 232.511719 387.5 233.984375 C 394.015625 237.691406 397.613281 237.910156 405.007812 237.089844 C 410.207031 235.683594 410.207031 235.683594 414.042969 232.570312 C 416.1875 228.363281 416.1875 228.363281 415.546875 223.535156 C 410.285156 215.929688 405.007812 212.492188 396.726562 208.570312 C 381.488281 200.664062 381.488281 200.664062 377.902344 191.914062 C 376.453125 182.09375 376.910156 174.601562 380.914062 165.46875 C 392.214844 152.519531 406.753906 152.113281 423.078125 154.265625 Z M 423.078125 154.265625 " fill-opacity="1" fill-rule="nonzero"/><path fill="#fefefd" d="M 727.261719 84.996094 C 722.886719 111.074219 716.246094 136.339844 709.191406 161.796875 C 704.003906 159.203125 703.019531 153.59375 700.816406 148.433594 C 699.882812 146.261719 698.945312 144.089844 697.984375 141.855469 C 696.59375 138.503906 695.28125 135.121094 694.132812 131.679688 C 691.648438 131.183594 689.164062 130.683594 686.601562 130.171875 C 682.613281 132.964844 682.613281 132.964844 678.980469 136.855469 C 675.160156 140.707031 675.160156 140.707031 671.542969 143.726562 C 669.558594 143.726562 667.570312 143.726562 665.519531 143.726562 C 664.03125 141.738281 662.539062 139.75 661.003906 137.703125 C 662.507812 133.183594 662.507812 133.183594 669.285156 128.855469 C 676.84375 124.769531 676.84375 124.769531 677.566406 116.621094 C 675.640625 116.464844 673.714844 116.308594 671.734375 116.148438 C 663.710938 115.074219 656.578125 113.3125 648.957031 110.597656 C 647.960938 109.105469 646.96875 107.617188 645.945312 106.078125 C 656.070312 103.0625 666.199219 100.058594 676.332031 97.074219 C 679.777344 96.054688 683.21875 95.03125 686.664062 94.003906 C 691.617188 92.527344 696.574219 91.066406 701.53125 89.609375 C 703.066406 89.148438 704.601562 88.6875 706.183594 88.210938 C 713.636719 86.035156 719.402344 84.996094 727.261719 84.996094 Z M 727.261719 84.996094 " fill-opacity="1" fill-rule="nonzero"/><path fill="#fefefd" d="M 358.324219 158.785156 C 360.3125 160.277344 362.300781 161.765625 364.347656 163.300781 C 364.347656 165.785156 364.347656 168.273438 364.347656 170.832031 C 358.324219 175.347656 358.324219 175.347656 351.738281 176.949219 C 341.3125 181.316406 339.199219 188 334.230469 197.9375 C 334.050781 201.949219 333.960938 205.96875 333.914062 209.984375 C 333.851562 213.617188 333.851562 213.617188 333.785156 217.324219 C 333.707031 222.46875 333.640625 227.613281 333.585938 232.761719 C 333.515625 236.394531 333.515625 236.394531 333.445312 240.101562 C 333.414062 242.335938 333.382812 244.574219 333.351562 246.878906 C 333.144531 248.617188 332.9375 250.355469 332.726562 252.148438 C 328.207031 255.160156 328.207031 255.160156 319.171875 255.160156 C 317.683594 254.164062 316.191406 253.171875 314.65625 252.148438 C 313.9375 247.699219 313.9375 247.699219 313.714844 241.988281 C 313.617188 239.902344 313.519531 237.8125 313.417969 235.664062 C 313.328125 233.429688 313.242188 231.199219 313.148438 228.902344 C 312.335938 212.125 311.117188 195.902344 308.007812 179.382812 C 305.851562 165.847656 305.851562 165.847656 308.632812 160.289062 C 312.609375 160.289062 316.582031 160.289062 320.679688 160.289062 C 324.003906 168.1875 325.734375 174.292969 325.195312 182.878906 C 326.6875 182.878906 328.179688 182.878906 329.714844 182.878906 C 330.273438 180.921875 330.273438 180.921875 330.84375 178.925781 C 335.941406 165.15625 343.074219 157.089844 358.324219 158.785156 Z M 358.324219 158.785156 " fill-opacity="1" fill-rule="nonzero"/><path fill="#ececea" d="M 510.417969 106.078125 C 510.914062 107.074219 511.410156 108.066406 511.921875 109.089844 C 511.226562 110.953125 510.535156 112.820312 509.816406 114.738281 C 506.820312 124.558594 506.617188 133.523438 506.464844 143.726562 C 506.0625 163.140625 506.0625 163.140625 504.394531 164.808594 C 500.882812 165.328125 497.367188 165.828125 493.851562 166.3125 C 491.617188 167.058594 491.617188 167.058594 489.335938 167.820312 C 490.328125 171.296875 491.324219 174.777344 492.347656 178.359375 C 494.550781 178.828125 496.757812 179.292969 499.03125 179.773438 C 505.898438 181.371094 505.898438 181.371094 507.40625 182.878906 C 507.597656 188.875 507.691406 194.839844 507.710938 200.835938 C 507.71875 202.664062 507.730469 204.492188 507.738281 206.371094 C 507.75 210.257812 507.761719 214.144531 507.765625 218.027344 C 507.78125 223.925781 507.828125 229.820312 507.875 235.714844 C 507.886719 239.492188 507.894531 243.269531 507.898438 247.046875 C 507.917969 248.792969 507.9375 250.542969 507.957031 252.339844 C 507.917969 267.097656 506.101562 279.917969 498.371094 292.804688 C 490.839844 294.3125 490.839844 294.3125 481.804688 294.3125 C 481.804688 297.292969 481.804688 300.273438 481.804688 303.347656 C 489.175781 308.875 492.363281 308.472656 501.382812 307.863281 C 506.523438 306.53125 506.523438 306.53125 510.417969 304.851562 C 510.417969 303.859375 510.417969 302.867188 510.417969 301.839844 C 511.410156 301.839844 512.40625 301.839844 513.429688 301.839844 C 521.71875 281.113281 526.003906 262.90625 525.664062 240.558594 C 525.652344 238.820312 525.640625 237.082031 525.628906 235.292969 C 525.59375 229.804688 525.539062 224.316406 525.476562 218.832031 C 525.394531 211.546875 525.335938 204.265625 525.289062 196.984375 C 525.261719 195.3125 525.238281 193.636719 525.210938 191.914062 C 525.1875 187.898438 525.316406 183.878906 525.476562 179.867188 C 530.277344 175.066406 535.828125 176.179688 542.269531 175.867188 C 546.859375 175.640625 546.859375 175.640625 551.074219 172.335938 C 551.074219 169.355469 551.074219 166.375 551.074219 163.300781 C 549.335938 161.210938 549.335938 161.210938 544.585938 161.753906 C 540.445312 161.84375 536.304688 161.941406 532.164062 162.039062 C 526.980469 161.796875 526.980469 161.796875 523.96875 158.785156 C 523.632812 153.398438 523.511719 147.996094 523.5 142.597656 C 523.460938 138.183594 523.460938 138.183594 523.421875 133.679688 C 524.109375 123.589844 525.957031 119.152344 533.003906 112.101562 C 534.992188 112.601562 536.980469 113.097656 539.027344 113.609375 C 537.847656 114.695312 536.667969 115.78125 535.453125 116.902344 C 528.695312 124.140625 528.101562 130.582031 528.207031 140.054688 C 528.21875 142.992188 528.21875 142.992188 528.234375 145.992188 C 528.324219 151.4375 528.324219 151.4375 529.992188 157.277344 C 531.335938 157.101562 532.679688 156.921875 534.0625 156.738281 C 535.828125 156.542969 537.589844 156.347656 539.40625 156.148438 C 541.152344 155.941406 542.898438 155.730469 544.699219 155.515625 C 549.570312 155.773438 549.570312 155.773438 555.59375 161.796875 C 556.441406 167.820312 556.441406 167.820312 555.59375 173.84375 C 550.027344 179.65625 545.710938 180.675781 537.804688 180.996094 C 535.183594 181.125 535.183594 181.125 532.503906 181.253906 C 530.515625 181.3125 530.515625 181.3125 528.488281 181.371094 C 528.984375 182.863281 529.480469 184.355469 529.992188 185.890625 C 530.195312 191.582031 530.3125 197.246094 530.351562 202.941406 C 530.363281 204.652344 530.375 206.359375 530.390625 208.117188 C 530.410156 211.746094 530.425781 215.378906 530.4375 219.007812 C 530.457031 222.683594 530.484375 226.355469 530.53125 230.03125 C 531.179688 283.296875 531.179688 283.296875 514.933594 304.851562 C 507.140625 311.011719 500.832031 313.886719 490.839844 313.886719 C 484.863281 311.933594 482.257812 309.890625 478.136719 305.136719 C 475.394531 299.542969 475.421875 297.164062 477.289062 291.300781 C 478.78125 289.808594 478.78125 289.808594 480.300781 288.289062 C 489.335938 288.289062 489.335938 288.289062 495.359375 289.792969 C 503.453125 276.179688 503.324219 260.480469 503.183594 245.117188 C 503.179688 243.371094 503.171875 241.621094 503.167969 239.820312 C 503.152344 234.300781 503.113281 228.777344 503.078125 223.253906 C 503.0625 219.484375 503.046875 215.714844 503.035156 211.945312 C 503.003906 202.757812 502.949219 193.570312 502.886719 184.382812 C 499.90625 184.382812 496.925781 184.382812 493.851562 184.382812 C 487.828125 181.371094 487.828125 181.371094 484.816406 176.855469 C 484.816406 167.820312 484.816406 167.820312 488.019531 164.242188 C 492.347656 161.796875 492.347656 161.796875 501.382812 161.796875 C 501.328125 159.613281 501.277344 157.433594 501.222656 155.183594 C 500.804688 125.132812 500.804688 125.132812 505.898438 110.597656 C 507.390625 109.105469 508.882812 107.617188 510.417969 106.078125 Z M 510.417969 106.078125 " fill-opacity="1" fill-rule="nonzero"/><path fill="#fdfdfc" d="M 465.523438 159.066406 C 467.621094 159.671875 467.621094 159.671875 469.757812 160.289062 C 478.421875 177.617188 474.585938 209.089844 474.652344 228.148438 C 474.667969 230.046875 474.679688 231.941406 474.695312 233.898438 C 474.648438 247.257812 474.648438 247.257812 471.265625 250.640625 C 465.242188 251.113281 465.242188 251.113281 459.21875 250.640625 C 454.617188 243.742188 455.480469 236.210938 455.265625 228.148438 C 455.210938 226.363281 455.160156 224.582031 455.105469 222.742188 C 454.949219 216.984375 454.824219 211.226562 454.699219 205.464844 C 454.648438 203.496094 454.597656 201.527344 454.546875 199.496094 C 454.40625 193.707031 454.308594 187.917969 454.230469 182.125 C 454.183594 180.3125 454.140625 178.5 454.09375 176.632812 C 454.0625 172.183594 454.355469 167.738281 454.699219 163.300781 C 460.722656 158.785156 460.722656 158.785156 465.523438 159.066406 Z M 465.523438 159.066406 " fill-opacity="1" fill-rule="nonzero"/><path fill="#f1f0ef" d="M 426.089844 151.539062 C 431.035156 154.527344 433.722656 156.796875 436.628906 161.796875 C 436.628906 170.832031 436.628906 170.832031 433.523438 174.503906 C 427.757812 177.570312 424.808594 176.941406 418.558594 175.347656 C 416.574219 174.355469 414.585938 173.363281 412.535156 172.335938 C 406 172.472656 406 172.472656 400.488281 175.347656 C 400.488281 177.832031 400.488281 180.320312 400.488281 182.878906 C 404.949219 186.222656 409.28125 189.054688 414.042969 191.914062 C 417.222656 193.933594 420.394531 195.972656 423.546875 198.03125 C 425.035156 198.980469 426.519531 199.929688 428.046875 200.90625 C 433.730469 205.175781 437.386719 209.238281 439.640625 216.007812 C 440.496094 235.894531 440.496094 235.894531 435.125 243.113281 C 424.136719 254.289062 414.46875 258.296875 398.984375 258.832031 C 387.917969 258.566406 379.414062 256.230469 371.03125 248.664062 C 368.191406 243.351562 368.003906 240.019531 368.867188 234.078125 C 374.890625 228.054688 374.890625 228.054688 379.785156 227.300781 C 385.429688 228.054688 385.429688 228.054688 391.453125 231.160156 C 398.152344 234.402344 400.945312 234.410156 408.019531 232.570312 C 409.511719 231.828125 409.511719 231.828125 411.03125 231.066406 C 411.03125 228.085938 411.03125 225.101562 411.03125 222.03125 C 406.539062 218.570312 402.355469 215.804688 397.476562 212.996094 C 379.148438 202.132812 379.148438 202.132812 374.890625 193.417969 C 372.179688 182.570312 373.292969 175.011719 377.902344 164.808594 C 387.691406 148.855469 409.460938 146.601562 426.089844 151.539062 Z M 380.914062 165.46875 C 377.03125 174.324219 375.953125 182.382812 377.902344 191.914062 C 382.972656 200.917969 388.464844 204.777344 397.570312 209.417969 C 411.046875 216.324219 411.046875 216.324219 415.546875 223.535156 C 415.738281 228.242188 415.738281 228.242188 414.042969 232.570312 C 407.257812 237.539062 401.191406 237.976562 392.960938 237.089844 C 389.441406 235.089844 385.929688 233.082031 382.417969 231.066406 C 377.40625 231.25 377.40625 231.25 373.382812 232.570312 C 371.964844 237.476562 371.964844 237.476562 371.878906 243.113281 C 376.703125 249.746094 382.160156 252.847656 389.949219 255.160156 C 402.730469 256.53125 413.09375 255.347656 424.582031 249.136719 C 434.328125 239.507812 434.328125 239.507812 436.914062 226.832031 C 436.621094 218.714844 435.652344 213.835938 430.273438 207.632812 C 425.871094 203.769531 421.449219 200.890625 416.394531 197.9375 C 402.507812 189.554688 402.507812 189.554688 397.476562 184.382812 C 395.972656 176.855469 395.972656 176.855469 397.476562 170.832031 C 405.011719 168.320312 410.683594 168.527344 417.996094 171.679688 C 423.351562 174.527344 423.351562 174.527344 430.605469 172.335938 C 431.601562 171.34375 432.59375 170.351562 433.617188 169.324219 C 433.839844 164.859375 433.839844 164.859375 432.113281 160.289062 C 423.140625 152.640625 414.9375 153.390625 403.632812 153.703125 C 393.050781 154.671875 387.828125 157.546875 380.914062 165.46875 Z M 380.914062 165.46875 " fill-opacity="1" fill-rule="nonzero"/><path fill="#ecebea" d="M 361.335938 155.773438 C 367.359375 161.796875 367.359375 161.796875 368.207031 167.066406 C 367.359375 172.335938 367.359375 172.335938 364.441406 175.726562 C 359.832031 178.359375 359.832031 178.359375 352.960938 180.429688 C 345.40625 183.199219 343.675781 184.796875 340.253906 191.914062 C 337.628906 199.617188 336.953125 206.027344 337.214844 214.144531 C 337.257812 216.324219 337.300781 218.503906 337.347656 220.75 C 337.464844 225.324219 337.605469 229.898438 337.757812 234.46875 C 337.796875 236.644531 337.835938 238.820312 337.875 241.058594 C 337.933594 243.042969 337.992188 245.027344 338.050781 247.070312 C 337.242188 252.148438 337.242188 252.148438 333.820312 255.804688 C 328.097656 259.105469 324.160156 258.996094 317.667969 258.171875 C 308.554688 249.058594 309.863281 241.285156 309.574219 228.996094 C 308.984375 208.941406 307.023438 189.363281 302.9375 169.679688 C 302.609375 164.808594 302.609375 164.808594 307.125 157.277344 C 310.136719 155.773438 310.136719 155.773438 319.171875 155.773438 C 325.316406 160.519531 327.804688 164.867188 329.714844 172.335938 C 330.523438 171.003906 331.328125 169.667969 332.160156 168.289062 C 340.4375 156.746094 347.394531 152.984375 361.335938 155.773438 Z M 335.738281 167.820312 C 331.320312 174.90625 331.320312 174.90625 329.714844 182.878906 C 328.222656 182.878906 326.734375 182.878906 325.195312 182.878906 C 325.335938 180.640625 325.335938 180.640625 325.480469 178.359375 C 325.160156 171.5625 323.304688 166.53125 320.679688 160.289062 C 316.703125 160.289062 312.726562 160.289062 308.632812 160.289062 C 304.789062 167.976562 307.683594 177.65625 309.195312 185.703125 C 311.992188 202.277344 312.753906 218.878906 313.417969 235.664062 C 313.515625 237.75 313.613281 239.839844 313.714844 241.988281 C 313.789062 243.875 313.863281 245.757812 313.9375 247.699219 C 314.175781 249.167969 314.410156 250.636719 314.65625 252.148438 C 319.519531 255.996094 319.519531 255.996094 328.207031 255.160156 C 329.699219 254.164062 331.191406 253.171875 332.726562 252.148438 C 333.347656 246.859375 333.347656 246.859375 333.179688 240.578125 C 333.191406 238.214844 333.203125 235.855469 333.21875 233.421875 C 333.203125 228.453125 333.171875 223.484375 333.125 218.515625 C 333.238281 203.453125 334.351562 193.71875 343.265625 181.371094 C 349.707031 177.507812 354.296875 175.835938 361.335938 173.84375 C 362.332031 172.847656 363.324219 171.855469 364.347656 170.832031 C 364.347656 168.347656 364.347656 165.863281 364.347656 163.300781 C 352.9375 154.746094 344.980469 157.867188 335.738281 167.820312 Z M 335.738281 167.820312 " fill-opacity="1" fill-rule="nonzero"/><path fill="#efeeed" d="M 191.835938 132.902344 C 196.347656 136.757812 198.300781 139.613281 200.210938 145.230469 C 200.050781 153.246094 198.699219 154.273438 192.679688 160.289062 C 183.644531 160.289062 183.644531 160.289062 179.410156 157.371094 C 173.066406 153.269531 168.585938 152.863281 161.058594 152.761719 C 154.019531 154.679688 148 157.03125 141.480469 160.289062 C 146.460938 153.550781 149.710938 149.847656 158.046875 148.242188 C 169.75 147.039062 176.382812 150.429688 186.65625 155.773438 C 192.292969 154.914062 192.292969 154.914062 194.1875 152.761719 C 194.941406 147.679688 194.941406 147.679688 194.1875 142.21875 C 187.714844 134.9375 178.929688 132.082031 169.394531 131.191406 C 150.046875 130.621094 136.550781 134.910156 121.90625 148.242188 C 108.179688 165.273438 106.617188 184.335938 108.351562 205.464844 C 111.378906 222.183594 118.554688 235.878906 132.351562 246.03125 C 138.9375 250.015625 144.738281 252.8125 152.023438 255.160156 C 154.507812 256.152344 156.992188 257.148438 159.550781 258.171875 C 159.550781 258.667969 159.550781 259.164062 159.550781 259.675781 C 142.253906 258.839844 128.882812 251.1875 117.386719 238.59375 C 103.605469 218.433594 99.820312 197.734375 104.269531 173.882812 C 108.523438 155.765625 117.308594 144.574219 132.257812 134.03125 C 152.367188 123.976562 171.59375 122.230469 191.835938 132.902344 Z M 191.835938 132.902344 " fill-opacity="1" fill-rule="nonzero"/><path fill="#f0efed" d="M 581.191406 151.253906 C 586.941406 157.003906 588.550781 159.585938 591.269531 166.890625 C 592.332031 169.714844 592.332031 169.714844 593.414062 172.597656 C 594.132812 174.5625 594.851562 176.523438 595.59375 178.550781 C 596.316406 180.480469 597.042969 182.40625 597.789062 184.394531 C 601.679688 194.84375 605.242188 205.289062 608.296875 216.007812 C 611.554688 211.121094 612.613281 207.320312 614.082031 201.65625 C 614.59375 199.71875 615.109375 197.785156 615.636719 195.789062 C 616.703125 191.703125 617.765625 187.609375 618.824219 183.519531 C 619.339844 181.585938 619.855469 179.648438 620.386719 177.65625 C 620.847656 175.878906 621.308594 174.101562 621.785156 172.269531 C 623.355469 167.820312 623.355469 167.820312 627.875 163.300781 C 626.902344 171.367188 625.125 178.914062 622.925781 186.730469 C 622.253906 189.144531 621.578125 191.554688 620.882812 194.039062 C 620.179688 196.539062 619.472656 199.035156 618.746094 201.609375 C 618.035156 204.144531 617.324219 206.683594 616.589844 209.296875 C 614.835938 215.550781 613.074219 221.804688 611.308594 228.054688 C 609.324219 228.054688 607.335938 228.054688 605.285156 228.054688 C 604.882812 226.128906 604.480469 224.203125 604.0625 222.21875 C 598.910156 199.980469 591.414062 177.71875 581.191406 157.277344 C 577.394531 155.101562 577.394531 155.101562 569.144531 155.773438 C 568.152344 156.765625 567.160156 157.761719 566.132812 158.785156 C 566.585938 167.445312 568.726562 174.464844 572.082031 182.414062 C 572.988281 184.582031 573.890625 186.753906 574.824219 188.988281 C 576.253906 192.347656 576.253906 192.347656 577.710938 195.773438 C 579.570312 200.199219 581.425781 204.621094 583.28125 209.046875 C 584.191406 211.207031 585.097656 213.363281 586.035156 215.585938 C 589.414062 223.6875 592.660156 231.84375 595.875 240.011719 C 597.351562 243.625 599.023438 247.152344 600.769531 250.640625 C 600.265625 256.6875 599.011719 260.183594 596.25 265.699219 C 595.257812 265.699219 594.265625 265.699219 593.238281 265.699219 C 594.148438 261.164062 595.128906 256.636719 596.25 252.148438 C 594.765625 247.902344 594.765625 247.902344 592.398438 243.394531 C 587.101562 232.445312 582.558594 221.289062 578.085938 209.984375 C 576.949219 207.128906 576.949219 207.128906 575.789062 204.21875 C 573.5625 198.617188 571.351562 193.007812 569.144531 187.394531 C 568.417969 185.5625 567.691406 183.730469 566.941406 181.839844 C 566.257812 180.105469 565.578125 178.367188 564.875 176.578125 C 564.265625 175.035156 563.660156 173.496094 563.03125 171.90625 C 561.230469 166.710938 560.578125 162.703125 561.617188 157.277344 C 568.796875 150.097656 571.585938 148.707031 581.191406 151.253906 Z M 581.191406 151.253906 " fill-opacity="1" fill-rule="nonzero"/><path fill="#eae9e7" d="M 281.527344 155.773438 C 285.777344 158.109375 285.777344 158.109375 289.054688 161.796875 C 290.140625 166.75 290.140625 166.75 290.34375 172.632812 C 290.441406 174.785156 290.539062 176.941406 290.636719 179.160156 C 290.738281 182.585938 290.738281 182.585938 290.84375 186.078125 C 291.042969 190.734375 291.246094 195.390625 291.457031 200.050781 C 291.550781 202.285156 291.644531 204.523438 291.746094 206.832031 C 292.238281 216.277344 293.363281 225.574219 294.671875 234.941406 C 295.113281 240.535156 294.824219 245.171875 293.574219 250.640625 C 289.054688 255.160156 289.054688 255.160156 283.125 255.914062 C 277.007812 255.160156 277.007812 255.160156 273.433594 251.675781 C 272.625 250.34375 271.816406 249.007812 270.984375 247.628906 C 269.992188 246.140625 269 244.648438 267.972656 243.113281 C 265.226562 245.675781 265.226562 245.675781 262.421875 248.289062 C 255.925781 253.652344 255.925781 253.652344 248.398438 255.160156 C 252.324219 251.117188 256.226562 247.390625 260.632812 243.867188 C 265.574219 239.960938 265.574219 239.960938 269.480469 232.570312 C 270.472656 232.570312 271.46875 232.570312 272.492188 232.570312 C 272.925781 234.714844 273.363281 236.859375 273.808594 239.066406 C 275.042969 245.996094 275.042969 245.996094 278.515625 250.640625 C 281.496094 250.640625 284.476562 250.640625 287.550781 250.640625 C 289.921875 248.617188 289.921875 248.617188 289.238281 241.71875 C 289.164062 233.496094 288.496094 225.414062 287.644531 217.230469 C 286.265625 203.019531 285.480469 188.875 285.054688 174.605469 C 285.5625 167.65625 285.5625 167.65625 283.03125 161.796875 C 277.070312 161.421875 277.070312 161.421875 270.984375 161.796875 C 267.539062 164.582031 267.539062 164.582031 267.703125 168.894531 C 267.75 170.605469 267.792969 172.3125 267.839844 174.074219 C 267.867188 175.957031 267.898438 177.84375 267.929688 179.789062 C 268.019531 183.742188 268.117188 187.691406 268.222656 191.644531 C 268.402344 203.714844 267.226562 213.554688 263.457031 225.042969 C 262.460938 225.042969 261.46875 225.042969 260.445312 225.042969 C 258.953125 228.769531 258.953125 228.769531 257.433594 232.570312 C 255.941406 232.570312 254.453125 232.570312 252.914062 232.570312 C 254.097656 230.492188 255.277344 228.410156 256.492188 226.265625 C 265.125 208.65625 263.597656 189.859375 262.972656 170.777344 C 263.457031 163.300781 263.457031 163.300781 269.480469 157.277344 C 272.492188 155.773438 272.492188 155.773438 281.527344 155.773438 Z M 281.527344 155.773438 " fill-opacity="1" fill-rule="nonzero"/><path fill="#f0efed" d="M 645.945312 179.867188 C 648.273438 186.847656 645.390625 191.683594 643.082031 198.589844 C 642.605469 200.015625 642.128906 201.441406 641.640625 202.910156 C 640.625 205.949219 639.605469 208.988281 638.574219 212.023438 C 637.042969 216.554688 635.53125 221.09375 634.023438 225.632812 C 608.671875 301.476562 608.671875 301.476562 584.203125 313.886719 C 576.535156 315.386719 571.355469 316.199219 563.96875 313.511719 C 557.828125 309.316406 555.792969 307.273438 554.179688 299.863281 C 554.085938 292.804688 554.085938 292.804688 556.347656 287.535156 C 561.15625 282.726562 563.953125 282.613281 570.652344 282.265625 C 578.878906 281.605469 581.765625 279.378906 587.214844 273.230469 C 589.726562 270.71875 592.234375 268.210938 594.746094 265.699219 C 594.746094 273.230469 594.746094 273.230469 591.546875 277.089844 C 581.84375 285.316406 576.011719 287.269531 563.121094 288.289062 C 559.390625 291.386719 559.390625 291.386719 559.453125 297.984375 C 559.667969 300.25 559.886719 302.515625 560.109375 304.851562 C 569.761719 310.644531 577.160156 310.632812 588.0625 308.148438 C 589.878906 307.261719 589.878906 307.261719 591.734375 306.359375 C 592.480469 304.121094 592.480469 304.121094 593.238281 301.839844 C 594.234375 301.839844 595.226562 301.839844 596.25 301.839844 C 597.246094 299.855469 598.238281 297.867188 599.261719 295.816406 C 600.628906 293.675781 601.996094 291.53125 603.40625 289.324219 C 615.363281 269.398438 621.558594 246.207031 628.910156 224.289062 C 630.410156 219.824219 631.914062 215.355469 633.421875 210.890625 C 634.777344 206.875 636.128906 202.855469 637.476562 198.835938 C 643.207031 182.605469 643.207031 182.605469 645.945312 179.867188 Z M 645.945312 179.867188 " fill-opacity="1" fill-rule="nonzero"/><path fill="#e8e6e5" d="M 462.792969 155.207031 C 468.253906 155.773438 468.253906 155.773438 474.277344 161.796875 C 476.84375 166.933594 476.320312 172.570312 476.589844 178.25 C 476.71875 181.003906 476.851562 183.761719 476.984375 186.597656 C 477.117188 189.503906 477.246094 192.40625 477.382812 195.394531 C 477.519531 198.234375 477.65625 201.074219 477.796875 204 C 478.171875 212.015625 478.492188 220.035156 478.792969 228.054688 C 478.894531 230.097656 478.992188 232.144531 479.09375 234.25 C 479.257812 239.507812 479.257812 239.507812 478.792969 247.628906 C 472.769531 253.652344 472.769531 253.652344 469.757812 255.160156 C 460.722656 255.160156 460.722656 255.160156 456.488281 252.617188 C 447.390625 238.839844 451.027344 212.515625 450.558594 196.429688 C 450.457031 193.636719 450.355469 190.84375 450.246094 187.964844 C 450.171875 185.292969 450.097656 182.621094 450.019531 179.867188 C 449.941406 177.445312 449.863281 175.023438 449.785156 172.527344 C 450.359375 163.539062 453.476562 156.242188 462.792969 155.207031 Z M 454.699219 163.300781 C 454.203125 169.71875 454.070312 175.71875 454.230469 182.125 C 454.253906 183.984375 454.28125 185.84375 454.308594 187.757812 C 454.402344 193.660156 454.546875 199.5625 454.699219 205.464844 C 454.742188 207.410156 454.785156 209.355469 454.828125 211.359375 C 454.949219 216.957031 455.101562 222.554688 455.265625 228.148438 C 455.3125 229.882812 455.355469 231.621094 455.40625 233.40625 C 455.527344 242.53125 455.527344 242.53125 459.21875 250.640625 C 465.242188 251.269531 465.242188 251.269531 471.265625 250.640625 C 476.085938 245.820312 474.671875 240.351562 474.695312 233.898438 C 474.675781 231.050781 474.675781 231.050781 474.652344 228.148438 C 474.640625 225.246094 474.640625 225.246094 474.625 222.28125 C 474.488281 208.554688 473.96875 194.878906 473.054688 181.183594 C 472.949219 179.453125 472.84375 177.726562 472.734375 175.945312 C 472.246094 166.332031 472.246094 166.332031 466.746094 158.785156 C 460.273438 158.183594 460.273438 158.183594 454.699219 163.300781 Z M 454.699219 163.300781 " fill-opacity="1" fill-rule="nonzero"/><path fill="#eae9e7" d="M 225.808594 155.773438 C 230.429688 159.265625 232.925781 161.578125 234.289062 167.273438 C 234.957031 173.355469 235.011719 179.289062 234.992188 185.40625 C 234.988281 187.890625 234.984375 190.378906 234.976562 192.9375 C 234.964844 195.519531 234.953125 198.101562 234.9375 200.761719 C 234.933594 203.378906 234.925781 205.992188 234.917969 208.691406 C 234.902344 215.144531 234.875 221.597656 234.84375 228.054688 C 228.875 222.082031 230.035156 213.878906 229.851562 205.914062 C 229.789062 203.351562 229.726562 200.789062 229.660156 198.148438 C 229.601562 195.46875 229.542969 192.792969 229.480469 190.03125 C 229.382812 185.976562 229.382812 185.976562 229.285156 181.84375 C 229.125 175.160156 228.96875 168.480469 228.820312 161.796875 C 224.347656 161.796875 219.878906 161.796875 215.269531 161.796875 C 210.792969 170.746094 213.414062 185.199219 213.386719 195.019531 C 213.355469 197.835938 213.324219 200.65625 213.292969 203.558594 C 213.285156 206.285156 213.277344 209.015625 213.269531 211.824219 C 213.253906 214.320312 213.242188 216.816406 213.226562 219.390625 C 214.214844 232.574219 218.09375 241.222656 227.316406 250.640625 C 231.382812 252.675781 235.023438 252.65625 239.550781 252.996094 C 242.46875 253.210938 245.390625 253.429688 248.398438 253.652344 C 248.398438 254.648438 248.398438 255.640625 248.398438 256.664062 C 238.867188 258.539062 232.960938 258.1875 224.304688 253.652344 C 212.679688 242.410156 208.144531 230.859375 207.519531 214.941406 C 207.484375 208.269531 207.460938 201.597656 207.457031 194.925781 C 207.4375 192.601562 207.421875 190.273438 207.402344 187.878906 C 207.398438 185.636719 207.394531 183.398438 207.394531 181.089844 C 207.386719 179.050781 207.378906 177.011719 207.375 174.90625 C 207.738281 169.375 208.445312 165.324219 210.75 160.289062 C 216.773438 155.773438 216.773438 155.773438 225.808594 155.773438 Z M 225.808594 155.773438 " fill-opacity="1" fill-rule="nonzero"/><path fill="#efeeed" d="M 138.46875 158.785156 C 139.464844 158.785156 140.457031 158.785156 141.480469 158.785156 C 138.46875 166.3125 138.46875 166.3125 136.117188 170.832031 C 131.152344 184.640625 131.605469 198.925781 135.457031 212.996094 C 141.160156 223.84375 146.605469 229.53125 158.046875 234.078125 C 168.132812 235.414062 176.242188 234.652344 185.152344 229.558594 C 194.1875 229.558594 194.1875 229.558594 198.609375 233.417969 C 201.714844 238.59375 201.714844 238.59375 202 243.960938 C 199.664062 250.714844 197.171875 252.808594 191.175781 256.664062 C 180.28125 261.453125 171.230469 261.585938 159.550781 261.183594 C 159.550781 260.1875 159.550781 259.195312 159.550781 258.171875 C 161.042969 258.023438 162.535156 257.875 164.070312 257.722656 C 180.011719 256.109375 180.011719 256.109375 194.1875 249.136719 C 196.113281 243.589844 196.039062 241.140625 194.1875 235.582031 C 185.199219 235.023438 185.199219 235.023438 177.621094 238.59375 C 166.445312 239.910156 157.59375 239.859375 147.410156 234.832031 C 137.398438 225.929688 128.625 215.820312 127.328125 202.144531 C 127.414062 185.796875 127.902344 172.078125 138.46875 158.785156 Z M 138.46875 158.785156 " fill-opacity="1" fill-rule="nonzero"/><path fill="#f2f1f0" d="M 152.023438 68.433594 C 156.738281 75.507812 154.660156 82.988281 153.90625 91.113281 C 153.707031 93.632812 153.707031 93.632812 153.503906 96.199219 C 152.414062 108.699219 152.414062 108.699219 149.011719 112.101562 C 141.480469 110.597656 141.480469 110.597656 139.976562 109.089844 C 139.785156 103.683594 139.695312 98.3125 139.695312 92.902344 C 139.671875 89.929688 139.652344 86.957031 139.628906 83.890625 C 139.976562 75.960938 139.976562 75.960938 142.988281 68.433594 C 146 66.925781 146 66.925781 152.023438 68.433594 Z M 152.023438 68.433594 " fill-opacity="1" fill-rule="nonzero"/><path fill="#f1f1f0" d="M 730.273438 80.480469 C 732.378906 88.90625 729.878906 95.890625 727.800781 104.113281 C 727.375 105.835938 726.949219 107.558594 726.511719 109.335938 C 725.605469 112.972656 724.695312 116.613281 723.777344 120.246094 C 722.371094 125.828125 721 131.414062 719.632812 137.003906 C 718.75 140.535156 717.867188 144.066406 716.980469 147.597656 C 716.570312 149.273438 716.160156 150.953125 715.738281 152.683594 C 712.722656 164.460938 712.722656 164.460938 707.683594 167.820312 C 703.089844 161.695312 700.117188 155.820312 696.863281 148.902344 C 695.246094 145.5 695.246094 145.5 693.597656 142.027344 C 691.121094 136.195312 691.121094 136.195312 691.121094 131.679688 C 692.113281 131.679688 693.109375 131.679688 694.132812 131.679688 C 696.113281 135.597656 698.089844 139.519531 700.0625 143.445312 C 701.164062 145.628906 702.261719 147.8125 703.398438 150.0625 C 706.179688 155.773438 706.179688 155.773438 707.683594 160.289062 C 712.207031 146.164062 715.902344 132.027344 719.167969 117.5625 C 720.0625 113.628906 720.960938 109.695312 721.859375 105.761719 C 722.25 104.050781 722.636719 102.335938 723.035156 100.570312 C 724.300781 95.332031 725.746094 90.167969 727.261719 84.996094 C 725.59375 85.449219 723.921875 85.902344 722.203125 86.367188 C 720.019531 86.941406 717.839844 87.511719 715.589844 88.101562 C 713.425781 88.679688 711.257812 89.257812 709.027344 89.851562 C 703.167969 91.019531 703.167969 91.019531 697.144531 89.515625 C 707.894531 84.609375 718.363281 80.480469 730.273438 80.480469 Z M 730.273438 80.480469 " fill-opacity="1" fill-rule="nonzero"/><path fill="#f5f4f4" d="M 69.199219 92.527344 C 77.390625 94.164062 77.992188 94.652344 82.660156 100.902344 C 83.683594 102.261719 84.707031 103.621094 85.757812 105.019531 C 87.253906 107.035156 87.253906 107.035156 88.777344 109.089844 C 90.515625 111.234375 92.253906 113.378906 94.046875 115.585938 C 97.8125 121.136719 97.8125 121.136719 97.8125 128.667969 C 96.816406 129.660156 95.824219 130.65625 94.800781 131.679688 C 85.007812 129.71875 83.679688 126.292969 77.953125 118.316406 C 76.378906 116.144531 74.804688 113.972656 73.183594 111.738281 C 70.8125 108.371094 68.472656 104.988281 66.1875 101.5625 C 67.695312 94.03125 67.695312 94.03125 69.199219 92.527344 Z M 69.199219 92.527344 " fill-opacity="1" fill-rule="nonzero"/><path fill="#f3f2f2" d="M 34.566406 155.773438 C 47.574219 157.976562 64.175781 161.289062 73.71875 170.832031 C 73.222656 173.316406 72.722656 175.800781 72.210938 178.359375 C 62.65625 180.273438 58.386719 177.894531 49.4375 174.21875 C 46.761719 173.140625 44.085938 172.0625 41.332031 170.949219 C 34.566406 167.820312 34.566406 167.820312 30.046875 163.300781 C 33.058594 157.277344 33.058594 157.277344 34.566406 155.773438 Z M 34.566406 155.773438 " fill-opacity="1" fill-rule="nonzero"/><path fill="#ececea" d="M 555.96875 93.46875 C 562.617188 97.679688 565.617188 100.523438 569.144531 107.585938 C 570.375 115.792969 570.648438 123.101562 566.324219 130.457031 C 560.5 135.421875 559.789062 134.691406 551.074219 134.691406 C 546.746094 131.492188 546.746094 131.492188 543.546875 127.160156 C 543.546875 124.179688 543.546875 121.199219 543.546875 118.125 C 543.050781 116.636719 542.550781 115.144531 542.039062 113.609375 C 544.027344 114.105469 546.015625 114.601562 548.0625 115.113281 C 548.25 117.039062 548.4375 118.964844 548.628906 120.949219 C 548.9375 127.125 548.9375 127.125 552.582031 130.171875 C 557.148438 130.039062 557.148438 130.039062 561.617188 128.667969 C 566.066406 121.992188 565.292969 116.964844 564.628906 109.089844 C 560.320312 102.121094 555.835938 98.128906 548.0625 95.539062 C 535.191406 94.3125 527.570312 96.664062 516.441406 103.066406 C 513.460938 104.558594 513.460938 104.558594 510.417969 106.078125 C 514.847656 97.214844 518.839844 94.839844 528.113281 91.304688 C 538.726562 88.902344 545.851562 89.597656 555.96875 93.46875 Z M 555.96875 93.46875 " fill-opacity="1" fill-rule="nonzero"/><path fill="#f1f1f0" d="M 651.96875 110.597656 C 657.863281 111.621094 657.863281 111.621094 664.957031 113.421875 C 667.304688 114.007812 669.652344 114.59375 672.074219 115.195312 C 674.792969 115.902344 674.792969 115.902344 677.566406 116.621094 C 678.066406 118.609375 678.5625 120.597656 679.074219 122.644531 C 665.898438 132.996094 665.898438 132.996094 662.507812 134.691406 C 663.503906 137.671875 664.496094 140.652344 665.519531 143.726562 C 672.242188 141.035156 675.1875 139.230469 680.296875 134.503906 C 682.378906 132.578125 684.460938 130.652344 686.601562 128.667969 C 688.09375 129.164062 689.585938 129.660156 691.121094 130.171875 C 691.121094 131.167969 691.121094 132.160156 691.121094 133.183594 C 688.132812 135.226562 685.113281 137.226562 682.085938 139.207031 C 680.316406 140.855469 678.542969 142.5 676.722656 144.195312 C 675.011719 145.53125 673.304688 146.867188 671.542969 148.242188 C 664.015625 146.738281 664.015625 146.738281 659.6875 142.503906 C 658.628906 140.917969 657.574219 139.335938 656.484375 137.703125 C 657.992188 131.679688 657.992188 131.679688 661.433594 129.113281 C 665.304688 126.957031 669.179688 124.800781 673.050781 122.644531 C 668.195312 119.40625 664.039062 118.089844 658.460938 116.433594 C 656.6875 115.902344 654.910156 115.367188 653.078125 114.820312 C 651.71875 114.421875 650.359375 114.019531 648.957031 113.609375 C 649.949219 112.613281 650.945312 111.621094 651.96875 110.597656 Z M 651.96875 110.597656 " fill-opacity="1" fill-rule="nonzero"/><path fill="#fdfdfc" d="M 462.984375 117.5625 C 468.253906 118.125 468.253906 118.125 472.769531 122.644531 C 472.769531 125.625 472.769531 128.605469 472.769531 131.679688 C 471.28125 133.171875 469.789062 134.660156 468.253906 136.195312 C 457.203125 135.6875 457.203125 135.6875 453.195312 131.679688 C 453.195312 128.699219 453.195312 125.714844 453.195312 122.644531 C 457.710938 118.125 457.710938 118.125 462.984375 117.5625 Z M 462.984375 117.5625 " fill-opacity="1" fill-rule="nonzero"/><path fill="#efeeee" d="M 471.265625 115.113281 C 476.515625 122.113281 476.714844 124.671875 475.78125 133.183594 C 469.757812 139.207031 469.757812 139.207031 462.984375 139.960938 C 456.207031 139.207031 456.207031 139.207031 450.183594 133.183594 C 448.582031 128.007812 448.582031 128.007812 448.675781 122.644531 C 455.875 113.695312 460.117188 112.886719 471.265625 115.113281 Z M 453.195312 122.644531 C 453.195312 125.625 453.195312 128.605469 453.195312 131.679688 C 460.335938 136.84375 460.335938 136.84375 468.253906 136.195312 C 469.746094 134.707031 471.234375 133.214844 472.769531 131.679688 C 472.769531 128.699219 472.769531 125.714844 472.769531 122.644531 C 468.6875 117.617188 468.6875 117.617188 462.984375 117.5625 C 457.277344 117.617188 457.277344 117.617188 453.195312 122.644531 Z M 453.195312 122.644531 " fill-opacity="1" fill-rule="nonzero"/><path fill="#ececeb" d="M 697.144531 89.515625 C 697.144531 90.507812 697.144531 91.503906 697.144531 92.527344 C 694.691406 93.234375 692.242188 93.945312 689.714844 94.675781 C 686.449219 95.621094 683.183594 96.566406 679.921875 97.515625 C 678.3125 97.980469 676.699219 98.445312 675.042969 98.925781 C 665.773438 101.617188 656.585938 104.464844 647.449219 107.585938 C 648.941406 109.078125 650.433594 110.566406 651.96875 112.101562 C 641.804688 110.785156 641.804688 110.785156 638.414062 109.089844 C 641.425781 103.066406 641.425781 103.066406 646.234375 101.140625 C 649.277344 100.335938 649.277344 100.335938 652.378906 99.515625 C 654.585938 98.921875 656.789062 98.332031 659.0625 97.722656 C 662.539062 96.828125 662.539062 96.828125 666.085938 95.914062 C 668.390625 95.296875 670.699219 94.675781 673.074219 94.039062 C 690.175781 89.515625 690.175781 89.515625 697.144531 89.515625 Z M 697.144531 89.515625 " fill-opacity="1" fill-rule="nonzero"/><path fill="#f0efed" d="M 645.945312 151.253906 C 653.328125 158.640625 653.328125 158.640625 653.472656 166.3125 C 651.308594 173.65625 651.308594 173.65625 648.957031 179.867188 C 647.960938 179.867188 646.96875 179.867188 645.945312 179.867188 C 646.164062 178.65625 646.378906 177.445312 646.605469 176.195312 C 647.597656 169.910156 648.285156 163.609375 648.957031 157.277344 C 643.988281 156.285156 639.019531 155.292969 633.898438 154.265625 C 633.898438 155.757812 633.898438 157.25 633.898438 158.785156 C 632.40625 160.277344 630.917969 161.765625 629.378906 163.300781 C 628.386719 163.300781 627.394531 163.300781 626.367188 163.300781 C 627.875 155.773438 627.875 155.773438 632.390625 151.253906 C 637.789062 149.457031 640.476562 149.804688 645.945312 151.253906 Z M 645.945312 151.253906 " fill-opacity="1" fill-rule="nonzero"/></svg>