<?xml version="1.0" encoding="UTF-8"?>
<!-- Generated by @neplex/vectorizer (Using visioncortex VTracer) -->
<svg version="1.1" xmlns="http://www.w3.org/2000/svg" width="1024" height="1024">
<path d="M0 0 C5.8655303 4.63068182 5.8655303 4.63068182 7.5625 7.8125 C8.17214846 13.23159745 8.50950586 16.43257717 5.375 21 C2.5625 22.8125 2.5625 22.8125 -2.4375 21.8125 C-5.38894084 18.86105916 -5.04642863 15.85357077 -5.4375 11.8125 C-7.4175 11.8125 -9.3975 11.8125 -11.4375 11.8125 C-12.4275 11.4825 -13.4175 11.1525 -14.4375 10.8125 C-19.70082969 17.09453866 -19.59283545 21.93905354 -19.5625 29.9375 C-19.56636719 30.96488281 -19.57023438 31.99226563 -19.57421875 33.05078125 C-20.08846987 37.7956683 -20.08846987 37.7956683 -18.4375 41.8125 C-14.58114595 41.84437069 -10.73418383 41.74370104 -6.87890625 41.65234375 C-3.4375 41.8125 -3.4375 41.8125 -1.4375 43.8125 C-1.4375 45.7925 -1.4375 47.7725 -1.4375 49.8125 C-5.6180526 52.94791445 -6.67801786 53.20852884 -11.625 53.4375 C-16.98627942 53.14124122 -16.98627942 53.14124122 -18.4375 54.8125 C-18.48932951 58.54000175 -18.47874004 62.2499592 -18.4296875 65.9765625 C-18.41214136 68.32030795 -18.39523604 70.66405826 -18.37890625 73.0078125 C-18.34818939 76.70261184 -18.31301199 80.39716565 -18.26611328 84.09179688 C-17.81737665 121.38231498 -17.81737665 121.38231498 -27.4375 135.8125 C-28.0975 135.8125 -28.7575 135.8125 -29.4375 135.8125 C-29.4375 136.4725 -29.4375 137.1325 -29.4375 137.8125 C-34.54089662 140.95305176 -38.49491324 141.39838884 -44.4375 140.8125 C-47.5 139.1875 -47.5 139.1875 -49.4375 136.8125 C-49.4375 130.8125 -49.4375 130.8125 -48.4375 129.8125 C-46.82875 129.895 -45.22 129.9775 -43.5625 130.0625 C-41.87125 129.98 -40.18 129.8975 -38.4375 129.8125 C-32.60839272 120.0973212 -31.99756358 110.42940224 -32.14453125 99.390625 C-32.14877609 98.16462585 -32.15302094 96.93862671 -32.15739441 95.67547607 C-32.17403146 91.80424955 -32.2116559 87.93356609 -32.25 84.0625 C-32.26506617 81.41927841 -32.27875117 78.77604857 -32.29101562 76.1328125 C-32.32388592 69.69250279 -32.37556381 63.2525931 -32.4375 56.8125 C-33.88125 56.52375 -35.325 56.235 -36.8125 55.9375 C-41.4375 54.8125 -41.4375 54.8125 -43.4375 52.8125 C-43.4375 50.8325 -43.4375 48.8525 -43.4375 46.8125 C-39.99299263 44.51616176 -37.49937717 44.27233515 -33.4375 43.8125 C-33.41171875 41.99105469 -33.3859375 40.16960937 -33.359375 38.29296875 C-33.30305811 35.86195639 -33.24571162 33.43096773 -33.1875 31 C-33.17332031 29.80439453 -33.15914062 28.60878906 -33.14453125 27.37695312 C-32.89890182 18.36235304 -32.06305016 9.67975351 -25.625 2.8125 C-17.23151069 -2.4540031 -9.36288609 -4.61550723 0 0 Z " fill="#FDFDFD" transform="translate(625.4375,449.1875)"/>
<path d="M0 0 C6 0 6 0 10 3 C11.83650168 7.31826071 13.45502936 11.57614965 15 16 C15.59554687 17.6809375 16.19109375 19.361875 16.8046875 21.09375 C18.55338549 26.05685964 20.28684582 31.02451694 22 36 C22.38542969 37.10730469 22.77085937 38.21460938 23.16796875 39.35546875 C24.17089347 42.54316844 24.60250436 45.68753634 25 49 C25.66 49 26.32 49 27 49 C27.35304199 47.71311279 27.70608398 46.42622559 28.06982422 45.1003418 C29.38125125 40.33008526 30.69751291 35.56121846 32.01708984 30.79321289 C32.58739784 28.72864601 33.15576891 26.66354308 33.72216797 24.59790039 C34.53625967 21.63024386 35.35727952 18.66457985 36.1796875 15.69921875 C36.67194824 13.91346436 37.16420898 12.12770996 37.67138672 10.2878418 C39 6 39 6 41 3 C41.66 3 42.32 3 43 3 C43 2.01 43 1.02 43 0 C49.625 -0.25 49.625 -0.25 53 2 C53.52552972 8.25177533 52.66481293 12.96516897 50.43359375 18.78125 C48.05400293 25.16963815 45.76455591 31.56711009 43.59765625 38.03125 C43.01693359 39.74957031 42.43621094 41.46789062 41.83789062 43.23828125 C40.65469555 46.74491219 39.47500451 50.25272741 38.29882812 53.76171875 C27.86255769 84.57356481 27.86255769 84.57356481 20 95 C19.175 96.11375 18.35 97.2275 17.5 98.375 C13.17206433 102.91933246 10.22385153 103.90934433 3.9375 104.375 C-0.79926121 104.01524598 -3.43168968 103.56831032 -7 100 C-7.25 95.625 -7.25 95.625 -7 91 C-4 88 -4 88 0.8125 87.5625 C6.02943535 86.99680822 8.09228522 86.33585408 12 83 C12.99 81.68 13.98 80.36 15 79 C15.66 79 16.32 79 17 79 C17.185625 77.39125 17.185625 77.39125 17.375 75.75 C18 72 18 72 20 68 C19.66722672 63.43200161 18.18340751 59.73072545 16.3203125 55.578125 C12.99993644 48.03343767 9.91869237 40.40982939 6.875 32.75 C6.36324219 31.46609375 5.85148438 30.1821875 5.32421875 28.859375 C4.33268085 26.37160896 3.34394279 23.88272463 2.35839844 21.39257812 C1.50596866 19.26364855 0.63670445 17.14130143 -0.25683594 15.02929688 C-2.09873993 10.65214245 -3 7.83126541 -3 3 C-2.01 2.01 -1.02 1.02 0 0 Z " fill="#FEFEFD" transform="translate(635,487)"/>
<path d="M0 0 C4 4 4 4 4.4375 7.5625 C4 11 4 11 1 14 C-4 13 -4 13 -7.75 10.9375 C-14.03378697 8.07283241 -18.68845812 8.32013474 -25.25 10.25 C-32.6595973 13.70781207 -35.36018631 17.61926669 -39 25 C-40.91500456 34.5750228 -42.02581448 45.41159397 -37.375 54.3125 C-33.0623232 60.30232889 -29.27787081 63.23327751 -23 67 C-19.36041462 67.43659039 -19.36041462 67.43659039 -15.5 67.3125 C-13.56640625 67.30669922 -13.56640625 67.30669922 -11.59375 67.30078125 C-7.66366293 67.14836788 -7.66366293 67.14836788 -3 65 C-1.02 65 0.96 65 3 65 C5 69 5 69 5.1875 71.9375 C3.29766154 76.81129393 -0.42569014 77.86532207 -5 80 C-15.01948678 82.5048717 -24.73324177 81.31769554 -33.85546875 76.48828125 C-44.33972035 70.19207077 -50.61363893 62.09034606 -54.12109375 50.19921875 C-56.83012141 37.25608658 -55.77842868 23.69812356 -49.25 12.125 C-37.14661044 -3.23699445 -17.81188373 -9.29315673 0 0 Z " fill="#FEFEFD" transform="translate(383,475)"/>
<path d="M0 0 C3.4375 -0.375 3.4375 -0.375 7 0 C10.89628974 3.89628974 10.40331123 5.6052609 10.4765625 11.02734375 C10.5075 12.62384766 10.5384375 14.22035156 10.5703125 15.86523438 C10.58835937 17.53908203 10.60640625 19.21292969 10.625 20.9375 C10.67595856 24.23834092 10.73047782 27.53912937 10.7890625 30.83984375 C10.80662598 32.30800537 10.82418945 33.77616699 10.84228516 35.28881836 C10.87902604 39.08596046 10.87902604 39.08596046 12 43 C12.99 42.505 12.99 42.505 14 42 C14.99 43.98 15.98 45.96 17 48 C22.86925591 48.19611614 22.86925591 48.19611614 28 47 C28.66 45.68 29.32 44.36 30 43 C30.66 43 31.32 43 32 43 C32.144375 41.9275 32.28875 40.855 32.4375 39.75 C33 36 33 36 34 32 C34.0474552 29.79087269 34.03793716 27.58025704 33.9921875 25.37109375 C33.97542969 24.08912109 33.95867187 22.80714844 33.94140625 21.48632812 C33.89706908 18.78306498 33.84496212 16.07991829 33.78515625 13.37695312 C33.77097656 12.09626953 33.75679688 10.81558594 33.7421875 9.49609375 C33.7201123 8.32232178 33.69803711 7.1485498 33.67529297 5.93920898 C34 3 34 3 37 0 C41.0625 -0.3125 41.0625 -0.3125 45 0 C47.97409115 2.97409115 47.40371957 5.56463092 47.59765625 9.71875 C47.67693359 11.29140625 47.75621094 12.8640625 47.83789062 14.484375 C47.91201172 16.13953125 47.98613281 17.7946875 48.0625 19.5 C48.21805605 22.73967979 48.37555631 25.97926691 48.53515625 29.21875 C48.61032471 30.74886719 48.68549316 32.27898438 48.76293945 33.85546875 C49.03362795 38.58791766 49.49383407 43.28742065 50 48 C50.18870508 51.72143981 50.14010021 55.26399441 50 59 C49.34 59.66 48.68 60.32 48 61 C46.02 61 44.04 61 42 61 C38.53765486 56.38353982 38.4149307 53.64305752 38 48 C34.922928 50.96664048 34.922928 50.96664048 32.25 54.4375 C27.04929487 60.13827293 23.80313412 61.79121605 16.0625 62.6875 C11.06106113 62.51201092 9.85257426 61.901043 5.4375 58.9375 C-3.69983919 48.47109329 -2.18305416 36.60162628 -2.1875 23.4375 C-2.19974609 21.52517578 -2.21199219 19.61285156 -2.22460938 17.64257812 C-2.22654297 15.82048828 -2.22847656 13.99839844 -2.23046875 12.12109375 C-2.23457764 10.4445874 -2.23868652 8.76808105 -2.24291992 7.04077148 C-2 3 -2 3 0 0 Z " fill="#FDFDFC" transform="translate(400,491)"/>
<path d="M0 0 C3.46875 1.828125 3.46875 1.828125 6 4 C6.875 7.25 6.875 7.25 7 10 C5.68 10.99 4.36 11.98 3 13 C-1 12 -1 12 -3.8125 10.9375 C-8.44791426 9.57414287 -12.41068418 9.47022806 -17 11 C-17.9491946 14.21326257 -17.9491946 14.21326257 -18 18 C-14.66969192 22.85273462 -11.16567002 25.35163653 -6 28.0625 C-1.21889707 30.58185273 2.33643714 33.01587538 6 37 C6.66 37.66 7.32 38.32 8 39 C9.50292867 45.01171468 10.16254599 50.63019471 7.375 56.3125 C1.82630535 62.59128605 -3.59686755 66.51184571 -12.15625 67.28515625 C-20.12519514 67.49534632 -25.50827972 66.61879021 -32 61.75 C-34 59 -34 59 -33.8125 55.1875 C-33.544375 54.135625 -33.27625 53.08375 -33 52 C-30.4375 51.25 -30.4375 51.25 -27 51 C-25.329375 51.9590625 -25.329375 51.9590625 -23.625 52.9375 C-19.29814116 55.39933348 -16.90939026 55.54548781 -12 55 C-8.54603899 54.06636718 -8.54603899 54.06636718 -6 52 C-4.57562248 49.20518191 -4.57562248 49.20518191 -5 46 C-8.49476004 40.94830098 -11.99882743 38.66455463 -17.5 36.0625 C-27.61855637 30.81072245 -27.61855637 30.81072245 -30 25 C-30.96151492 18.47842053 -30.65874433 13.5027605 -28 7.4375 C-20.49609241 -1.16072745 -10.83904167 -1.43117443 0 0 Z " fill="#FEFEFD" transform="translate(538,487)"/>
<path d="M0 0 C-2.90504359 17.31558874 -7.31487664 34.09570666 -12 51 C-15.44342814 49.27828593 -16.09924183 45.55250662 -17.5625 42.125 C-18.18253906 40.68382812 -18.80257812 39.24265625 -19.44140625 37.7578125 C-20.36419674 35.53293919 -21.23831742 33.28504774 -22 31 C-23.65 30.67 -25.3 30.34 -27 30 C-29.6496925 31.85341403 -29.6496925 31.85341403 -32.0625 34.4375 C-34.59765625 36.99609375 -34.59765625 36.99609375 -37 39 C-38.32 39 -39.64 39 -41 39 C-41.99 37.68 -42.98 36.36 -44 35 C-43 32 -43 32 -38.5 29.125 C-33.48104509 26.41063345 -33.48104509 26.41063345 -33 21 C-34.27875 20.896875 -35.5575 20.79375 -36.875 20.6875 C-42.20102781 19.97303286 -46.93988661 18.80223217 -52 17 C-52.66 16.01 -53.32 15.02 -54 14 C-47.27696095 11.99580487 -40.55088025 10.00229538 -33.82177734 8.01855469 C-31.53380338 7.34243715 -29.24668273 6.66342488 -26.96044922 5.98144531 C-23.67115654 5.00080438 -20.37891989 4.03066801 -17.0859375 3.0625 C-16.06696381 2.75626709 -15.04799011 2.45003418 -13.99813843 2.13452148 C-9.04687641 0.68972206 -5.22001645 0 0 0 Z " fill="#FEFEFD" transform="translate(740,441)"/>
<path d="M0 0 C1.32 0.99 2.64 1.98 4 3 C4 4.65 4 6.3 4 8 C0 11 0 11 -4.375 12.0625 C-11.29915844 14.96316097 -12.70033227 19.40066455 -16 26 C-16.1200836 28.66488928 -16.17938939 31.33259308 -16.2109375 34 C-16.25347656 36.413125 -16.25347656 36.413125 -16.296875 38.875 C-16.34895665 42.29155653 -16.39322818 45.70824105 -16.4296875 49.125 C-16.47609375 51.538125 -16.47609375 51.538125 -16.5234375 54 C-16.54325684 55.485 -16.56307617 56.97 -16.58349609 58.5 C-16.72094238 59.655 -16.85838867 60.81 -17 62 C-20 64 -20 64 -26 64 C-26.99 63.34 -27.98 62.68 -29 62 C-29.4765625 59.04516602 -29.4765625 59.04516602 -29.625 55.25390625 C-29.69025879 53.8673584 -29.75551758 52.48081055 -29.82275391 51.05224609 C-29.88124512 49.57062988 -29.93973633 48.08901367 -30 46.5625 C-30.54075428 35.42248215 -31.35080741 24.64966755 -33.4140625 13.6796875 C-34.84541063 4.69082126 -34.84541063 4.69082126 -33 1 C-30.36 1 -27.72 1 -25 1 C-22.79163769 6.24486049 -21.64365522 10.29848347 -22 16 C-21.01 16 -20.02 16 -19 16 C-18.62875 14.700625 -18.62875 14.700625 -18.25 13.375 C-14.86361074 4.231749 -10.1272895 -1.12525439 0 0 Z " fill="#FEFEFD" transform="translate(495,490)"/>
<path d="M0 0 C0.33 0.66 0.66 1.32 1 2 C0.53851562 3.2375 0.07703125 4.475 -0.3984375 5.75 C-2.38775536 12.271081 -2.52376965 18.2247971 -2.625 25 C-2.89333156 37.89333156 -2.89333156 37.89333156 -4 39 C-6.33157492 39.34541851 -8.66508361 39.67794257 -11 40 C-12.485 40.495 -12.485 40.495 -14 41 C-13.34 43.31 -12.68 45.62 -12 48 C-10.535625 48.309375 -9.07125 48.61875 -7.5625 48.9375 C-3 50 -3 50 -2 51 C-1.87331821 54.98107126 -1.81119091 58.94373513 -1.796875 62.92578125 C-1.79117493 64.13888474 -1.78547485 65.35198822 -1.77960205 66.60185242 C-1.770128 69.18190636 -1.76360859 71.76197254 -1.75976562 74.34204102 C-1.75013516 78.25754648 -1.71916543 82.17251022 -1.6875 86.08789062 C-1.68096262 88.59635106 -1.67571504 91.10481524 -1.671875 93.61328125 C-1.6595282 94.77314041 -1.6471814 95.93299957 -1.63446045 97.12800598 C-1.66078684 106.92685587 -2.86503586 115.44172643 -8 124 C-13 125 -13 125 -19 125 C-19 126.98 -19 128.96 -19 131 C-14.10481899 134.67138576 -11.98922273 134.40467721 -6 134 C-2.58528076 133.11539972 -2.58528076 133.11539972 0 132 C0 131.34 0 130.68 0 130 C0.66 130 1.32 130 2 130 C7.50602229 116.23494427 10.35072424 104.14427597 10.125 89.3046875 C10.11742676 88.15001984 10.10985352 86.99535217 10.10205078 85.80569458 C10.07785167 82.16196882 10.04054856 78.51857811 10 74.875 C9.94695509 70.03907229 9.90698411 65.20329489 9.875 60.3671875 C9.85840332 59.25584442 9.84180664 58.14450134 9.82470703 56.9994812 C9.80747007 54.33240304 9.89381336 51.66501921 10 49 C13.18749623 45.81250377 16.87559699 46.55161132 21.15234375 46.34375 C24.1988286 46.19316023 24.1988286 46.19316023 27 44 C27 42.02 27 40.04 27 38 C25.84575938 36.61201306 25.84575938 36.61201306 22.69140625 36.97265625 C19.94134709 37.0324967 17.1913444 37.09499184 14.44140625 37.16015625 C11 37 11 37 9 35 C8.77565784 31.42217956 8.69455677 27.83484012 8.6875 24.25 C8.66236328 21.31867188 8.66236328 21.31867188 8.63671875 18.328125 C9.09357251 11.62760316 10.31940129 8.68059871 15 4 C16.32 4.33 17.64 4.66 19 5 C18.21625 5.721875 17.4325 6.44375 16.625 7.1875 C12.13850331 11.99446074 11.74377756 16.27127297 11.8125 22.5625 C11.82216797 24.51349609 11.82216797 24.51349609 11.83203125 26.50390625 C11.89149329 30.12045563 11.89149329 30.12045563 13 34 C13.89203125 33.88140625 14.7840625 33.7628125 15.703125 33.640625 C16.87359375 33.51171875 18.0440625 33.3828125 19.25 33.25 C20.41015625 33.11078125 21.5703125 32.9715625 22.765625 32.828125 C26 33 26 33 30 37 C30.5625 41 30.5625 41 30 45 C26.30340474 48.86088839 23.43857308 49.53783543 18.1875 49.75 C16.44533203 49.83507812 16.44533203 49.83507812 14.66796875 49.921875 C13.34732422 49.96054687 13.34732422 49.96054687 12 50 C12.33 50.99 12.66 51.98 13 53 C13.13514308 56.78083738 13.21273625 60.54228766 13.23828125 64.32421875 C13.246353 65.45841751 13.25442474 66.59261627 13.26274109 67.76118469 C13.27658942 70.17125927 13.28730821 72.58135352 13.29516602 74.99145508 C13.30661313 77.4322696 13.32694735 79.87306055 13.35668945 82.3137207 C13.78767199 117.68558909 13.78767199 117.68558909 3 132 C-2.17614138 136.09082141 -6.36585639 138 -13 138 C-16.96995044 136.70213159 -18.7006204 135.345438 -21.4375 132.1875 C-23.25803958 128.47359926 -23.23934111 126.89507206 -22 123 C-21.01 122.01 -21.01 122.01 -20 121 C-14 121 -14 121 -10 122 C-4.62425607 112.95897612 -4.70917618 102.53343227 -4.8046875 92.33203125 C-4.8075174 91.17120529 -4.81034729 90.01037933 -4.81326294 88.81437683 C-4.82435909 85.14697474 -4.84944371 81.4798269 -4.875 77.8125 C-4.88504346 75.30924835 -4.89416691 72.80599282 -4.90234375 70.30273438 C-4.92426375 64.2017266 -4.95871973 58.10090624 -5 52 C-6.98 52 -8.96 52 -11 52 C-15 50 -15 50 -17 47 C-17 41 -17 41 -14.875 38.625 C-12 37 -12 37 -6 37 C-6.03480469 35.55109375 -6.06960938 34.1021875 -6.10546875 32.609375 C-6.38485647 12.6531092 -6.38485647 12.6531092 -3 3 C-2.01 2.01 -1.02 1.02 0 0 Z " fill="#ECECEA" transform="translate(596,455)"/>
<path d="M0 0 C1.3921875 0.4021875 1.3921875 0.4021875 2.8125 0.8125 C8.56548414 12.31846828 6.01726696 33.21847707 6.0625 45.875 C6.071604 47.13481689 6.08070801 48.39463379 6.09008789 49.69262695 C6.06002044 58.56497956 6.06002044 58.56497956 3.8125 60.8125 C-0.1875 61.125 -0.1875 61.125 -4.1875 60.8125 C-7.24212089 56.23056866 -6.67060723 51.23023549 -6.8125 45.875 C-6.84754639 44.69035156 -6.88259277 43.50570312 -6.91870117 42.28515625 C-7.02238519 38.46114891 -7.10592385 34.63703806 -7.1875 30.8125 C-7.22149902 29.50394043 -7.25549805 28.19538086 -7.29052734 26.84716797 C-7.38428195 23.00227715 -7.44728202 19.15815139 -7.5 15.3125 C-7.52980957 14.10859619 -7.55961914 12.90469238 -7.59033203 11.66430664 C-7.61036792 8.71071859 -7.41676938 5.75724437 -7.1875 2.8125 C-3.1875 -0.1875 -3.1875 -0.1875 0 0 Z " fill="#FDFDFC" transform="translate(566.1875,490.1875)"/>
<path d="M0 0 C3.28549059 1.9849839 5.06966639 3.49232618 7 6.8125 C7 12.8125 7 12.8125 4.9375 15.25 C1.10724042 17.28737212 -0.85036963 16.86876955 -5 15.8125 C-6.32 15.1525 -7.64 14.4925 -9 13.8125 C-13.34166414 13.90166112 -13.34166414 13.90166112 -17 15.8125 C-17 17.4625 -17 19.1125 -17 20.8125 C-14.03764034 23.03426974 -11.16166656 24.9146132 -8 26.8125 C-5.88688161 28.15265499 -3.78285329 29.50723565 -1.6875 30.875 C-0.70136719 31.50535156 0.28476562 32.13570312 1.30078125 32.78515625 C5.07400533 35.6191697 7.50173788 38.31771365 9 42.8125 C9.56797967 56.01802732 9.56797967 56.01802732 6 60.8125 C-1.29669698 68.2350021 -7.71763908 70.89619833 -18 71.25 C-25.34881783 71.07540606 -30.9951308 69.52421123 -36.5625 64.5 C-38.4496463 60.97185692 -38.57396884 58.75853581 -38 54.8125 C-34 50.8125 -34 50.8125 -30.75 50.3125 C-27 50.8125 -27 50.8125 -23 52.875 C-18.5524798 55.02926759 -16.69628455 55.03353398 -12 53.8125 C-11.01 53.3175 -11.01 53.3175 -10 52.8125 C-10 50.8325 -10 48.8525 -10 46.8125 C-12.98274303 44.51432094 -15.76159056 42.67830774 -19 40.8125 C-31.17158718 33.59788986 -31.17158718 33.59788986 -34 27.8125 C-35.80099326 20.60852696 -35.05956277 15.58724614 -32 8.8125 C-25.5000197 -1.78006048 -11.04380484 -3.27862956 0 0 Z M-30 9.25 C-32.57804787 15.13117171 -33.29460069 20.48418722 -32 26.8125 C-28.63179466 32.79251907 -24.98622873 35.35427405 -18.9375 38.4375 C-9.98938401 43.02330597 -9.98938401 43.02330597 -7 47.8125 C-6.875 50.9375 -6.875 50.9375 -8 53.8125 C-12.5064833 57.1099268 -16.53527081 57.4010093 -22 56.8125 C-24.33580761 55.48350601 -26.66932733 54.15047875 -29 52.8125 C-32.3300262 52.93342178 -32.3300262 52.93342178 -35 53.8125 C-35.94271002 57.06889659 -35.94271002 57.06889659 -36 60.8125 C-32.7956513 65.21847946 -29.17178249 67.27712707 -24 68.8125 C-15.51136352 69.72239306 -8.62997154 68.93680894 -1 64.8125 C5.46998515 58.41787167 5.46998515 58.41787167 7.1875 50 C6.99269033 44.61026569 6.35158724 41.37074469 2.77734375 37.25 C-0.14557447 34.68473844 -3.08200918 32.77283386 -6.4375 30.8125 C-15.65929318 25.24600423 -15.65929318 25.24600423 -19 21.8125 C-20 16.8125 -20 16.8125 -19 12.8125 C-13.9975408 11.1450136 -10.22937313 11.28259779 -5.375 13.375 C-1.81765415 15.26542356 -1.81765415 15.26542356 3 13.8125 C3.66 13.1525 4.32 12.4925 5 11.8125 C5.14603837 8.84701971 5.14603837 8.84701971 4 5.8125 C-1.95917356 0.73345053 -7.40544392 1.23072221 -14.9140625 1.4375 C-21.94060986 2.08238389 -25.40917517 3.98967989 -30 9.25 Z " fill="#F1F0EF" transform="translate(540,485.1875)"/>
<path d="M0 0 C4 4 4 4 4.5625 7.5 C4 11 4 11 2.0625 13.25 C-1 15 -1 15 -5.5625 16.375 C-10.57931672 18.21214415 -11.72824012 19.27473945 -14 24 C-15.7429374 29.11548828 -16.1921694 33.37244899 -16.01953125 38.76171875 C-15.99052734 40.20998047 -15.96152344 41.65824219 -15.93164062 43.15039062 C-15.85189739 46.18716981 -15.76066007 49.22366791 -15.65820312 52.25976562 C-15.63306641 53.70416016 -15.60792969 55.14855469 -15.58203125 56.63671875 C-15.54311768 57.95373779 -15.5042041 59.27075684 -15.46411133 60.62768555 C-16 64 -16 64 -18.2722168 66.42895508 C-22.07483613 68.61904327 -24.68730022 68.54764442 -29 68 C-35.05150564 61.94849436 -34.18330993 56.78520178 -34.375 48.625 C-34.76659849 35.30709147 -36.0692239 22.3063408 -38.78125 9.234375 C-39 6 -39 6 -36 1 C-34 0 -34 0 -28 0 C-23.91952254 3.15309622 -22.26875388 6.04032572 -21 11 C-20.46375 10.113125 -19.9275 9.22625 -19.375 8.3125 C-13.87852622 0.64636552 -9.25781051 -1.8515621 0 0 Z M-17 8 C-19.93437838 12.70703686 -19.93437838 12.70703686 -21 18 C-21.99 18 -22.98 18 -24 18 C-23.9071875 16.515 -23.9071875 16.515 -23.8125 15 C-24.0241247 10.48533977 -25.25547421 7.14324874 -27 3 C-29.64 3 -32.28 3 -35 3 C-37.55140501 8.10281001 -35.62976935 14.53281046 -34.625 19.875 C-32.76873747 30.88246329 -32.26274861 41.90692571 -31.82275391 53.05224609 C-31.75749512 54.43879395 -31.69223633 55.8253418 -31.625 57.25390625 C-31.57601563 58.50502197 -31.52703125 59.7561377 -31.4765625 61.04516602 C-31.31929688 62.02026123 -31.16203125 62.99535645 -31 64 C-27.76887492 66.5547002 -27.76887492 66.5547002 -22 66 C-21.01 65.34 -20.02 64.68 -19 64 C-18.58605731 60.48766102 -18.58605731 60.48766102 -18.69921875 56.31640625 C-18.69083984 54.74826172 -18.68246094 53.18011719 -18.67382812 51.56445312 C-18.68284676 48.26492051 -18.70342644 44.96539652 -18.73632812 41.66601562 C-18.65878729 31.66324732 -17.9207944 25.19856716 -12 17 C-7.72302639 14.43381583 -4.67610358 13.32342554 0 12 C0.66 11.34 1.32 10.68 2 10 C2 8.35 2 6.7 2 5 C-5.57718133 -0.682886 -10.86296074 1.3908808 -17 8 Z " fill="#ECEBEA" transform="translate(497,488)"/>
<path d="M0 0 C2.99848236 2.55968006 4.29390137 4.45632757 5.5625 8.1875 C5.45604221 13.51038939 4.55915596 14.19084404 0.5625 18.1875 C-5.4375 18.1875 -5.4375 18.1875 -8.25 16.25 C-12.46335934 13.52370866 -15.43775927 13.25416321 -20.4375 13.1875 C-25.11239122 14.46247033 -29.10914706 16.02332353 -33.4375 18.1875 C-30.1301232 13.71281374 -27.97280494 11.25198172 -22.4375 10.1875 C-14.66613557 9.3875066 -10.26058147 11.63949763 -3.4375 15.1875 C0.30525212 14.61624646 0.30525212 14.61624646 1.5625 13.1875 C2.06320321 9.81392666 2.06320321 9.81392666 1.5625 6.1875 C-2.73641233 1.35122363 -8.57060147 -0.54423328 -14.90234375 -1.13671875 C-27.75098867 -1.51500373 -36.71309741 1.33393944 -46.4375 10.1875 C-55.55216745 21.49643925 -56.58932274 34.15620477 -55.4375 48.1875 C-53.4275889 59.28986605 -48.661846 68.38379534 -39.5 75.125 C-35.12644728 77.77072942 -31.27534936 79.62954851 -26.4375 81.1875 C-24.7875 81.8475 -23.1375 82.5075 -21.4375 83.1875 C-21.4375 83.5175 -21.4375 83.8475 -21.4375 84.1875 C-32.92517409 83.6316448 -41.80522475 78.5508361 -49.4375 70.1875 C-58.58907444 56.79908555 -61.1047862 43.0524261 -58.1484375 27.21484375 C-55.32308927 15.18382794 -49.49008573 7.7502207 -39.5625 0.75 C-26.20911661 -5.92669169 -13.44141858 -7.08729343 0 0 Z " fill="#EFEEED" transform="translate(384.4375,472.8125)"/>
<path d="M0 0 C3.81847556 3.81847556 4.88579731 5.53259358 6.69140625 10.3828125 C7.39620117 12.25839844 7.39620117 12.25839844 8.11523438 14.171875 C8.59283203 15.47640625 9.07042969 16.7809375 9.5625 18.125 C10.04396484 19.40632813 10.52542969 20.68765625 11.02148438 22.0078125 C13.60502091 28.94462587 15.97096157 35.88128605 18 43 C20.16261796 39.75607307 20.8655803 37.23121004 21.83984375 33.46875 C22.18080078 32.18355469 22.52175781 30.89835938 22.87304688 29.57421875 C23.58243333 26.85902581 24.28816634 24.14287571 24.99023438 21.42578125 C25.33248047 20.14058594 25.67472656 18.85539062 26.02734375 17.53125 C26.33406006 16.35111328 26.64077637 15.17097656 26.95678711 13.95507812 C28 11 28 11 31 8 C30.35489163 13.35532545 29.17406935 18.36818369 27.71484375 23.55859375 C27.26689453 25.16025391 26.81894531 26.76191406 26.35742188 28.41210938 C25.88884766 30.07048828 25.42027344 31.72886719 24.9375 33.4375 C24.46505859 35.12294922 23.99261719 36.80839844 23.50585938 38.54492188 C22.34118766 42.69774123 21.17243264 46.84936633 20 51 C18.68 51 17.36 51 16 51 C15.731875 49.72125 15.46375 48.4425 15.1875 47.125 C11.76566961 32.35710041 6.78710959 17.57421919 0 4 C-2.52174919 2.5527864 -2.52174919 2.5527864 -8 3 C-8.66 3.66 -9.32 4.32 -10 5 C-9.69907822 10.75142051 -8.27821494 15.41277501 -6.05078125 20.69140625 C-5.44943359 22.13193359 -4.84808594 23.57246094 -4.22851562 25.05664062 C-3.28008789 27.28704102 -3.28008789 27.28704102 -2.3125 29.5625 C-1.07871743 32.50100422 0.15436075 35.4398043 1.38671875 38.37890625 C1.9904834 39.81121582 2.59424805 41.24352539 3.21630859 42.71923828 C5.45889868 48.10133171 7.61415767 53.51566578 9.74926758 58.94116211 C10.72969182 61.33892422 11.84151005 63.6830201 13 66 C12.66539297 70.01528431 11.83189733 72.33620534 10 76 C9.34 76 8.68 76 8 76 C8.60270048 72.98649762 9.25464401 69.98142397 10 67 C9.01296196 64.18002529 9.01296196 64.18002529 7.44140625 61.1875 C3.92476689 53.91659679 0.90641032 46.50846997 -2.0625 39 C-2.81756836 37.10507812 -2.81756836 37.10507812 -3.58789062 35.171875 C-5.06731852 31.45129566 -6.53516424 27.72634531 -8 24 C-8.48315674 22.78256104 -8.96631348 21.56512207 -9.46411133 20.31079102 C-9.91681396 19.15764404 -10.3695166 18.00449707 -10.8359375 16.81640625 C-11.23989746 15.79232666 -11.64385742 14.76824707 -12.06005859 13.71313477 C-13.25530543 10.26306253 -13.68991503 7.6028896 -13 4 C-8.23127395 -0.76872605 -6.38081203 -1.6928685 0 0 Z " fill="#F0EFED" transform="translate(643,485)"/>
<path d="M0 0 C2.8215332 1.55029297 2.8215332 1.55029297 5 4 C5.71948242 7.28955078 5.71948242 7.28955078 5.85546875 11.1953125 C5.91951904 12.62576904 5.98356934 14.05622559 6.04956055 15.5300293 C6.11784058 17.80453979 6.11784058 17.80453979 6.1875 20.125 C6.31924164 23.21760666 6.45462586 26.31006041 6.59375 29.40234375 C6.65691406 30.88847168 6.72007812 32.37459961 6.78515625 33.90576172 C7.11438385 40.17979228 7.86126674 46.35223314 8.73046875 52.57421875 C9.02262986 56.28762886 8.82992369 59.36853497 8 63 C5 66 5 66 1.0625 66.5 C-3 66 -3 66 -5.375 63.6875 C-5.91125 62.800625 -6.4475 61.91375 -7 61 C-7.66 60.01 -8.32 59.02 -9 58 C-10.8253125 59.7015625 -10.8253125 59.7015625 -12.6875 61.4375 C-17 65 -17 65 -22 66 C-19.39265584 63.31596925 -16.80036031 60.84028825 -13.875 58.5 C-10.59335471 55.90680801 -10.59335471 55.90680801 -8 51 C-7.34 51 -6.68 51 -6 51 C-5.71125 52.423125 -5.4225 53.84625 -5.125 55.3125 C-4.30542587 59.91583371 -4.30542587 59.91583371 -2 63 C-0.02 63 1.96 63 4 63 C5.5748916 61.65494679 5.5748916 61.65494679 5.12109375 57.07421875 C5.07092409 51.61276668 4.62777987 46.24661376 4.0625 40.8125 C3.14596334 31.37604507 2.62627827 21.98091377 2.34204102 12.50512695 C2.68102481 7.89165456 2.68102481 7.89165456 1 4 C-2.95824194 3.74996961 -2.95824194 3.74996961 -7 4 C-9.28952341 5.85023888 -9.28952341 5.85023888 -9.17944336 8.71459961 C-9.14987549 9.84905518 -9.12030762 10.98351074 -9.08984375 12.15234375 C-9.06986328 13.40466797 -9.04988281 14.65699219 -9.02929688 15.94726562 C-8.96890515 18.57237827 -8.90392827 21.19739012 -8.83398438 23.82226562 C-8.71544367 31.83807008 -9.49661955 38.3722063 -12 46 C-12.66 46 -13.32 46 -14 46 C-14.99 48.475 -14.99 48.475 -16 51 C-16.99 51 -17.98 51 -19 51 C-18.21625 49.618125 -17.4325 48.23625 -16.625 46.8125 C-10.89177264 35.11866515 -11.90596999 22.63543783 -12.3203125 9.96484375 C-12 5 -12 5 -8 1 C-6 0 -6 0 0 0 Z " fill="#EAE9E7" transform="translate(444,488)"/>
<path d="M0 0 C1.54564908 4.63694724 -0.36855369 7.84791561 -1.90234375 12.43359375 C-2.21772598 13.38073746 -2.53310822 14.32788116 -2.85804749 15.3037262 C-3.53231944 17.32184979 -4.21104 19.33849157 -4.89379883 21.35375977 C-5.91232152 24.36310715 -6.91537699 27.37724416 -7.91601562 30.39257812 C-24.75248886 80.75850884 -24.75248886 80.75850884 -41 89 C-46.09436366 89.99402218 -49.53194462 90.53383832 -54.4375 88.75 C-58.51587643 85.96476732 -59.86781387 84.60805622 -60.9375 79.6875 C-61 75 -61 75 -59.5 71.5 C-56.30636581 68.30636581 -54.44811487 68.23007491 -50 68 C-44.53741374 67.5629931 -42.62034607 66.084493 -39 62 C-37.33333333 60.33333333 -35.66666667 58.66666667 -34 57 C-34 62 -34 62 -36.125 64.5625 C-42.56883171 70.02574863 -46.44074931 71.32426968 -55 72 C-57.47924767 74.05636993 -57.47924767 74.05636993 -57.4375 78.4375 C-57.293125 79.943125 -57.14875 81.44875 -57 83 C-50.5899934 86.84600396 -45.67810649 86.83886639 -38.4375 85.1875 C-37.2309375 84.5996875 -37.2309375 84.5996875 -36 84 C-35.505 82.515 -35.505 82.515 -35 81 C-34.34 81 -33.68 81 -33 81 C-32.34 79.68 -31.68 78.36 -31 77 C-30.0925 75.576875 -29.185 74.15375 -28.25 72.6875 C-20.30717233 59.45422221 -16.19488013 44.0545207 -11.3125 29.5 C-10.31573292 26.53362118 -9.31768495 23.56769746 -8.31620789 20.60290527 C-7.41516367 17.934876 -6.51860162 15.26533423 -5.62231445 12.59570312 C-1.81755481 1.81755481 -1.81755481 1.81755481 0 0 Z " fill="#F0EFED" transform="translate(686,504)"/>
<path d="M0 0 C3.625 0.375 3.625 0.375 7.625 4.375 C9.33079825 7.7865965 8.98234677 11.52884943 9.16015625 15.30078125 C9.24716797 17.13060547 9.33417969 18.96042969 9.42382812 20.84570312 C9.51083984 22.77349609 9.59785156 24.70128906 9.6875 26.6875 C9.77837891 28.57275391 9.86925781 30.45800781 9.96289062 32.40039062 C10.21039643 37.72455681 10.42428168 43.04888961 10.625 48.375 C10.69058105 49.73286621 10.75616211 51.09073242 10.82373047 52.48974609 C10.93359375 55.98046875 10.93359375 55.98046875 10.625 61.375 C6.625 65.375 6.625 65.375 4.625 66.375 C-1.375 66.375 -1.375 66.375 -4.1875 64.6875 C-10.22979706 55.53773588 -7.81552679 38.05559993 -8.125 27.375 C-8.19332031 25.52003906 -8.26164063 23.66507812 -8.33203125 21.75390625 C-8.38230469 19.97886719 -8.43257812 18.20382812 -8.484375 16.375 C-8.53561523 14.76625 -8.58685547 13.1575 -8.63964844 11.5 C-8.25670807 5.53121727 -6.18783788 0.68753754 0 0 Z M-5.375 5.375 C-5.70670356 9.63541274 -5.79284935 13.62031001 -5.6875 17.875 C-5.67058105 19.10919678 -5.65366211 20.34339355 -5.63623047 21.61499023 C-5.57307453 25.53587974 -5.47685111 29.45493911 -5.375 33.375 C-5.34744629 34.66680176 -5.31989258 35.95860352 -5.29150391 37.28955078 C-5.20973223 41.00614425 -5.1099292 44.72164045 -5 48.4375 C-4.96946533 49.58992187 -4.93893066 50.74234375 -4.9074707 51.9296875 C-4.82691197 57.98763056 -4.82691197 57.98763056 -2.375 63.375 C1.625 63.79166667 1.625 63.79166667 5.625 63.375 C8.82713124 60.17286876 7.88795735 56.5414079 7.90307617 52.25537109 C7.88917847 50.3655249 7.88917847 50.3655249 7.875 48.4375 C7.86593628 46.50898193 7.86593628 46.50898193 7.85668945 44.54150391 C7.76486686 35.42713761 7.42031878 26.3443334 6.8125 17.25 C6.74256836 16.10152588 6.67263672 14.95305176 6.60058594 13.76977539 C6.27730093 7.38726399 6.27730093 7.38726399 2.625 2.375 C-1.675 1.975 -1.675 1.975 -5.375 5.375 Z " fill="#E8E6E5" transform="translate(564.375,487.625)"/>
<path d="M0 0 C3.06834704 2.31830665 4.72623556 3.85512833 5.63061523 7.63720703 C6.07413755 11.67493098 6.11166503 15.61714115 6.09765625 19.6796875 C6.09443359 21.3296875 6.09121094 22.9796875 6.08789062 24.6796875 C6.07951172 26.39414062 6.07113281 28.10859375 6.0625 29.875 C6.05798828 31.61265625 6.05347656 33.3503125 6.04882812 35.140625 C6.03705204 39.4271182 6.02060492 43.71354163 6 48 C2.03491729 44.03491729 2.80699489 38.58549514 2.68359375 33.296875 C2.64169922 31.5953125 2.59980469 29.89375 2.55664062 28.140625 C2.51732422 26.36171875 2.47800781 24.5828125 2.4375 22.75 C2.37272461 20.0584375 2.37272461 20.0584375 2.30664062 17.3125 C2.20042575 12.8750787 2.09838137 8.43760077 2 4 C-0.97 4 -3.94 4 -7 4 C-9.9712465 9.942493 -8.23228802 19.54227673 -8.25 26.0625 C-8.270625 27.93357422 -8.29125 29.80464844 -8.3125 31.73242188 C-8.31765625 33.54419922 -8.3228125 35.35597656 -8.328125 37.22265625 C-8.3374707 38.88047119 -8.34681641 40.53828613 -8.35644531 42.24633789 C-7.69994666 51.00160182 -5.12454267 56.74514791 1 63 C3.70183055 64.35091528 6.11808206 64.33858058 9.125 64.5625 C11.06375 64.706875 13.0025 64.85125 15 65 C15 65.66 15 66.32 15 67 C8.67017861 68.24335777 4.74929341 68.01153464 -1 65 C-8.72063811 57.53249756 -11.73111941 49.86165183 -12.14526367 39.29296875 C-12.16976945 34.86190211 -12.18565061 30.43113948 -12.1875 26 C-12.19974609 24.45570313 -12.21199219 22.91140625 -12.22460938 21.3203125 C-12.22654297 19.83273437 -12.22847656 18.34515625 -12.23046875 16.8125 C-12.23457764 15.45769531 -12.23868652 14.10289062 -12.24291992 12.70703125 C-12.00208336 9.03179266 -11.53054249 6.34354432 -10 3 C-6 0 -6 0 0 0 Z " fill="#EAE9E7" transform="translate(407,488)"/>
<path d="M0 0 C0.66 0 1.32 0 2 0 C0 5 0 5 -1.5625 8 C-4.85832125 17.17098086 -4.55808064 26.65744463 -2 36 C1.78665688 43.20388383 5.40309936 46.98071898 13 50 C19.69865242 50.88798095 25.0840366 50.38055051 31 47 C37 47 37 47 39.9375 49.5625 C42 53 42 53 42.1875 56.5625 C40.63760414 61.04904063 38.98309933 62.43943614 35 65 C27.76655816 68.1783305 21.75432521 68.26739052 14 68 C14 67.34 14 66.68 14 66 C14.99 65.90203125 15.98 65.8040625 17 65.703125 C27.58576075 64.63019287 27.58576075 64.63019287 37 60 C38.27800504 56.3163384 38.22982019 54.68946056 37 51 C31.03094922 50.62860932 31.03094922 50.62860932 26 53 C18.577991 53.87317753 12.69937201 53.83919606 5.9375 50.5 C-0.71228716 44.58907808 -6.5382719 37.87530549 -7.3984375 28.79296875 C-7.34319335 17.93749384 -7.0176701 8.82868174 0 0 Z " fill="#EFEEED" transform="translate(349,490)"/>
<path d="M0 0 C3.13188119 4.69782178 1.75117224 9.66550148 1.25 15.0625 C1.11851562 16.7340918 1.11851562 16.7340918 0.984375 18.43945312 C0.25947882 26.74052118 0.25947882 26.74052118 -2 29 C-7 28 -7 28 -8 27 C-8.12745524 23.40754067 -8.18522604 19.84286411 -8.1875 16.25 C-8.20167969 14.27515625 -8.21585937 12.3003125 -8.23046875 10.265625 C-8 5 -8 5 -6 0 C-4 -1 -4 -1 0 0 Z " fill="#F2F1F0" transform="translate(358,430)"/>
<path d="M0 0 C1.39872609 5.59490435 -0.26276593 10.23267149 -1.640625 15.6953125 C-1.92347351 16.8391037 -2.20632202 17.9828949 -2.4977417 19.16134644 C-3.09842963 21.578306 -3.70396421 23.9940654 -4.31396484 26.40869141 C-5.24717755 30.11379414 -6.15767791 33.82398251 -7.06640625 37.53515625 C-7.65227921 39.88055014 -8.23947412 42.22561428 -8.828125 44.5703125 C-9.10013733 45.68487823 -9.37214966 46.79944397 -9.65240479 47.94778442 C-11.65577309 55.77051539 -11.65577309 55.77051539 -15 58 C-18.05040679 53.93279095 -20.02652097 50.03105652 -22.1875 45.4375 C-23.26064453 43.17712891 -23.26064453 43.17712891 -24.35546875 40.87109375 C-26 37 -26 37 -26 34 C-25.34 34 -24.68 34 -24 34 C-22.68505467 36.60293278 -21.37311878 39.20738605 -20.0625 41.8125 C-19.33160156 43.26269531 -18.60070312 44.71289062 -17.84765625 46.20703125 C-16 50 -16 50 -15 53 C-11.99619731 43.61807881 -9.54389003 34.23145542 -7.375 24.625 C-6.78023715 22.01265802 -6.18393388 19.40066618 -5.5859375 16.7890625 C-5.3286084 15.65162598 -5.0712793 14.51418945 -4.80615234 13.34228516 C-3.96701115 9.86322913 -3.00588877 6.43419696 -2 3 C-3.10859375 3.30035156 -4.2171875 3.60070312 -5.359375 3.91015625 C-6.80828125 4.29042969 -8.2571875 4.67070312 -9.75 5.0625 C-11.18859375 5.44535156 -12.6271875 5.82820313 -14.109375 6.22265625 C-18 7 -18 7 -22 6 C-14.86145047 2.74109696 -7.91015672 0 0 0 Z " fill="#F1F1F0" transform="translate(742,438)"/>
<path d="M0 0 C5.43939516 1.08787903 5.83817419 1.41105132 8.9375 5.5625 C9.61683594 6.46484375 10.29617188 7.3671875 10.99609375 8.296875 C11.98802734 9.63492187 11.98802734 9.63492187 13 11 C14.155 12.423125 15.31 13.84625 16.5 15.3125 C19 19 19 19 19 24 C18.34 24.66 17.68 25.32 17 26 C10.49670291 24.69934058 9.61385911 22.42329183 5.8125 17.125 C4.76707031 15.68382812 3.72164063 14.24265625 2.64453125 12.7578125 C1.07146189 10.52252044 -0.48382284 8.27426574 -2 6 C-1 1 -1 1 0 0 Z " fill="#F5F4F4" transform="translate(303,446)"/>
<path d="M0 0 C8.63902429 1.46424141 19.66413489 3.66413489 26 10 C25.67 11.65 25.34 13.3 25 15 C18.65288305 16.26942339 15.81920013 14.68997735 9.875 12.25 C8.09867187 11.53328125 6.32234375 10.8165625 4.4921875 10.078125 C0 8 0 8 -3 5 C-1 1 -1 1 0 0 Z " fill="#F3F2F2" transform="translate(280,488)"/>
<path d="M0 0 C4.41469803 2.79597542 6.4055913 4.68618259 8.75 9.375 C9.56667862 14.82434233 9.74771626 19.67888235 6.875 24.5625 C3.00792436 27.86088804 2.5369825 27.375 -3.25 27.375 C-6.125 25.25 -6.125 25.25 -8.25 22.375 C-8.25 20.395 -8.25 18.415 -8.25 16.375 C-8.58 15.385 -8.91 14.395 -9.25 13.375 C-7.93 13.705 -6.61 14.035 -5.25 14.375 C-5.12625 15.65375 -5.0025 16.9325 -4.875 18.25 C-4.67106539 22.34940064 -4.67106539 22.34940064 -2.25 24.375 C0.78344954 24.28615 0.78344954 24.28615 3.75 23.375 C6.70478807 18.9428179 6.19085328 15.60226027 5.75 10.375 C2.88935565 5.74748708 -0.08785459 3.09571514 -5.25 1.375 C-13.79807047 0.56089805 -18.85809327 2.12212215 -26.25 6.375 C-28.23 7.365 -28.23 7.365 -30.25 8.375 C-27.30705246 2.48910492 -24.65685647 0.91182681 -18.5 -1.4375 C-11.45157508 -3.03178659 -6.71984014 -2.56935064 0 0 Z " fill="#ECECEA" transform="translate(626.25,446.625)"/>
<path d="M0 0 C3.9140625 0.6796875 3.9140625 0.6796875 8.625 1.875 C10.18476562 2.26429688 11.74453125 2.65359375 13.3515625 3.0546875 C15.15753906 3.52261719 15.15753906 3.52261719 17 4 C17.33 5.32 17.66 6.64 18 8 C9.25 14.875 9.25 14.875 7 16 C7.66 17.98 8.32 19.96 9 22 C13.4643897 20.21424412 15.41972913 19.01457901 18.8125 15.875 C20.194375 14.59625 21.57625 13.3175 23 12 C23.99 12.33 24.98 12.66 26 13 C26 13.66 26 14.32 26 15 C24.01502148 16.35559509 22.01118015 17.68359118 20 19 C18.824375 20.093125 17.64875 21.18625 16.4375 22.3125 C15.303125 23.199375 14.16875 24.08625 13 25 C8 24 8 24 5.125 21.1875 C4.42375 20.135625 3.7225 19.08375 3 18 C4 14 4 14 6.28515625 12.296875 C8.85677083 10.86458333 11.42838542 9.43229167 14 8 C10.77621244 5.8508083 8.01585352 4.975006 4.3125 3.875 C3.13300781 3.52179688 1.95351563 3.16859375 0.73828125 2.8046875 C-0.16535156 2.53914063 -1.06898438 2.27359375 -2 2 C-1.34 1.34 -0.68 0.68 0 0 Z " fill="#F1F1F0" transform="translate(690,458)"/>
<path d="M0 0 C3.5 0.375 3.5 0.375 6.5 3.375 C6.5 5.355 6.5 7.335 6.5 9.375 C5.51 10.365 4.52 11.355 3.5 12.375 C-3.83870968 12.03629032 -3.83870968 12.03629032 -6.5 9.375 C-6.5 7.395 -6.5 5.415 -6.5 3.375 C-3.5 0.375 -3.5 0.375 0 0 Z " fill="#FDFDFC" transform="translate(564.5,462.625)"/>
<path d="M0 0 C3.48597 4.64796 3.61831441 6.34683967 3 12 C-1 16 -1 16 -5.5 16.5 C-10 16 -10 16 -14 12 C-15.0625 8.5625 -15.0625 8.5625 -15 5 C-10.21944653 -0.94339081 -7.40205643 -1.48041129 0 0 Z M-12 5 C-12 6.98 -12 8.96 -12 11 C-7.25724788 14.42874646 -7.25724788 14.42874646 -2 14 C-1.01 13.01 -0.02 12.02 1 11 C1 9.02 1 7.04 1 5 C-1.711757 1.66049055 -1.711757 1.66049055 -5.5 1.625 C-9.288243 1.66049055 -9.288243 1.66049055 -12 5 Z " fill="#EFEEEE" transform="translate(570,461)"/>
<path d="M0 0 C0 0.66 0 1.32 0 2 C-1.62808594 2.47050781 -3.25617187 2.94101562 -4.93359375 3.42578125 C-7.10158965 4.05459391 -9.26955688 4.68350541 -11.4375 5.3125 C-12.50677734 5.62123047 -13.57605469 5.92996094 -14.67773438 6.24804688 C-20.83326983 8.03635228 -26.93268488 9.92652217 -33 12 C-32.01 12.99 -31.02 13.98 -30 15 C-36.75 14.125 -36.75 14.125 -39 13 C-37 9 -37 9 -33.80712891 7.71972656 C-31.78724854 7.18557129 -31.78724854 7.18557129 -29.7265625 6.640625 C-28.2621875 6.24746094 -26.7978125 5.85429687 -25.2890625 5.44921875 C-22.98035156 4.85560547 -22.98035156 4.85560547 -20.625 4.25 C-19.09359375 3.83878906 -17.5621875 3.42757813 -15.984375 3.00390625 C-4.62741383 0 -4.62741383 0 0 0 Z " fill="#ECECEB" transform="translate(720,444)"/>
<path d="M0 0 C4.90384615 4.90384615 4.90384615 4.90384615 5 10 C3.5625 14.875 3.5625 14.875 2 19 C1.34 19 0.68 19 0 19 C0.144375 18.195625 0.28875 17.39125 0.4375 16.5625 C1.09680739 12.38688653 1.55420155 8.20324249 2 4 C-1.3 3.34 -4.6 2.68 -8 2 C-8 2.99 -8 3.98 -8 5 C-8.99 5.99 -9.98 6.98 -11 8 C-11.66 8 -12.32 8 -13 8 C-12 3 -12 3 -9 0 C-5.41563853 -1.19478716 -3.63093708 -0.96330984 0 0 Z " fill="#F0EFED" transform="translate(686,485)"/>
</svg>
